<svg width="23" height="21" viewBox="0 0 23 21" fill="none" xmlns="http://www.w3.org/2000/svg">
<path fill-rule="evenodd" clip-rule="evenodd" d="M8.64296 0.203289C9.14704 0.0633723 9.67993 0.297834 9.91735 0.764C10.066 1.05581 10.2924 1.30082 10.5716 1.47191C10.8509 1.64301 11.172 1.73353 11.4995 1.73345C11.8269 1.73353 12.1486 1.64301 12.4278 1.47191C12.7071 1.30082 12.9335 1.05581 13.0821 0.764C13.3195 0.297834 13.8524 0.0633723 14.3565 0.203289C16.0057 0.661052 17.5206 1.50891 18.7732 2.67529C19.1285 3.00612 19.2249 3.53074 19.0104 3.96627C18.8762 4.23882 18.8142 4.54126 18.8303 4.84464C18.8465 5.14802 18.9402 5.44218 19.1026 5.69897C19.2649 5.95576 19.4905 6.16658 19.7576 6.31125C20.0248 6.45592 20.3246 6.52959 20.6283 6.52523C21.1149 6.51823 21.5482 6.83169 21.6938 7.29595C22.0191 8.3332 22.1841 9.41404 22.1831 10.5011C22.1831 10.5014 22.1831 10.5008 22.1831 10.5011C22.183 11.2366 22.1083 11.9559 21.9663 12.6513C21.8534 13.204 21.3408 13.5817 20.7795 13.5257C20.428 13.4907 20.074 13.5614 19.7629 13.7287C19.4518 13.8959 19.1977 14.1522 19.033 14.4648C18.8684 14.7773 18.8008 15.1319 18.8388 15.483C18.8768 15.8342 19.0188 16.1661 19.2465 16.4361C19.6094 16.8666 19.5887 17.5016 19.1985 17.9075C17.9206 19.2369 16.3203 20.2128 14.5533 20.7403C13.9795 20.9115 13.3742 20.5924 13.1912 20.0223C13.0763 19.664 12.8506 19.3515 12.5466 19.1297C12.2426 18.908 11.876 18.7885 11.4997 18.7885C11.1235 18.7885 10.7569 18.908 10.4529 19.1297C10.1489 19.3515 9.92319 19.664 9.80823 20.0223C9.6253 20.5924 9.0199 20.9116 8.44613 20.7402C6.67909 20.2127 5.07875 19.2366 3.80089 17.9069C3.41078 17.501 3.39011 16.8661 3.75301 16.4357C3.98071 16.1656 4.12265 15.8338 4.16067 15.4826C4.19869 15.1314 4.13106 14.7768 3.96644 14.4643C3.80182 14.1518 3.54769 13.8955 3.23657 13.7282C2.92546 13.5609 2.5715 13.4902 2.22 13.5253C1.65867 13.5812 1.14602 13.2034 1.03318 12.6507C0.888695 11.943 0.816069 11.2224 0.816407 10.5001C0.816466 9.38604 0.987148 8.30835 1.30605 7.29493C1.45022 6.83676 1.87501 6.52511 2.35532 6.52511H2.39557C2.69725 6.52521 2.99433 6.44842 3.25808 6.30198C3.52184 6.15555 3.74392 5.9443 3.90335 5.6882C4.06279 5.43209 4.15432 5.13958 4.16931 4.83827C4.18429 4.53697 4.12223 4.23681 3.98899 3.96615C3.77459 3.53064 3.87102 3.00608 4.22627 2.67529C5.47888 1.50891 6.99374 0.661052 8.64296 0.203289ZM6.2625 3.82564C6.34994 4.19132 6.38541 4.56903 6.36659 4.94754C6.33304 5.62229 6.12806 6.27736 5.77101 6.85089C5.41396 7.42442 4.91663 7.89749 4.32597 8.22542C3.97888 8.41812 3.6063 8.55697 3.22095 8.63867C3.08706 9.23671 3.01641 9.85959 3.01641 10.5001C3.01626 10.7915 3.03104 11.083 3.06063 11.3725C3.4843 11.4443 3.89583 11.5848 4.27843 11.7905C4.97516 12.1651 5.54426 12.7391 5.91292 13.439C6.28158 14.1389 6.43303 14.9329 6.34789 15.7194C6.30104 16.152 6.18376 16.5716 6.0028 16.9623C6.66599 17.5271 7.41221 17.9864 8.21501 18.3239C8.46949 17.9509 8.78721 17.6217 9.15652 17.3523C9.837 16.856 10.6575 16.5885 11.4997 16.5885C12.342 16.5885 13.1625 16.856 13.843 17.3523C14.2123 17.6217 14.53 17.9509 14.7845 18.3239C15.5873 17.9865 16.3335 17.5274 16.9966 16.9627C16.8157 16.5721 16.6984 16.1525 16.6516 15.7198C16.5665 14.9334 16.7179 14.1394 17.0866 13.4395C17.4552 12.7396 18.0243 12.1656 18.721 11.791C19.1036 11.5853 19.5151 11.4448 19.9388 11.373C19.968 11.0862 19.9831 10.795 19.9831 10.5001C19.9836 9.87367 19.9148 9.24883 19.7782 8.63894C19.4066 8.56013 19.0467 8.42815 18.71 8.2458C18.1117 7.92183 17.6066 7.44971 17.243 6.87465C16.8795 6.29959 16.6696 5.64084 16.6334 4.96144C16.6131 4.57828 16.6484 4.19579 16.7369 3.82559C16.0605 3.29383 15.3071 2.86831 14.5027 2.56365C14.2374 2.8694 13.9257 3.13428 13.5773 3.34776C12.9521 3.73083 12.2332 3.93353 11.5 3.93345M6.2625 3.82564C6.93891 3.29385 7.69237 2.86832 8.49678 2.56365C8.7621 2.8694 9.07381 3.13428 9.42222 3.34776C10.0474 3.73083 10.7668 3.93353 11.5 3.93345" fill="#D7D5D5"/>
<path fill-rule="evenodd" clip-rule="evenodd" d="M8.35147 7.35049C9.18679 6.51518 10.3197 6.0459 11.501 6.0459C12.086 6.0459 12.6652 6.16111 13.2056 6.38495C13.746 6.60879 14.237 6.93689 14.6506 7.35049C15.0642 7.7641 15.3923 8.25512 15.6162 8.79553C15.84 9.33593 15.9552 9.91514 15.9552 10.5001C15.9552 11.085 15.84 11.6642 15.6162 12.2046C15.3923 12.745 15.0642 13.236 14.6506 13.6496C14.237 14.0632 13.746 14.3913 13.2056 14.6152C12.6652 14.839 12.086 14.9542 11.501 14.9542C10.3197 14.9542 9.18679 14.485 8.35147 13.6496C7.51615 12.8143 7.04688 11.6814 7.04688 10.5001C7.04688 9.31875 7.51615 8.18581 8.35147 7.35049ZM11.501 8.2459C10.9032 8.2459 10.3298 8.48339 9.90711 8.90613C9.48437 9.32887 9.24688 9.90222 9.24688 10.5001C9.24688 11.0979 9.48437 11.6713 9.90711 12.094C10.3298 12.5167 10.9032 12.7542 11.501 12.7542C11.7971 12.7542 12.0902 12.6959 12.3637 12.5826C12.6372 12.4694 12.8857 12.3033 13.095 12.094C13.3043 11.8847 13.4703 11.6362 13.5836 11.3627C13.6969 11.0892 13.7552 10.7961 13.7552 10.5001C13.7552 10.204 13.6969 9.91092 13.5836 9.63743C13.4703 9.36395 13.3043 9.11545 13.095 8.90613C12.8857 8.69681 12.6372 8.53077 12.3637 8.41749C12.0902 8.3042 11.7971 8.2459 11.501 8.2459Z" fill="#D7D5D5"/>
</svg>
