<svg width="20" height="22" viewBox="0 0 20 22" fill="none" xmlns="http://www.w3.org/2000/svg">
<path d="M15.4 22H4.4C3.81652 22 3.25694 21.7682 2.84436 21.3556C2.43178 20.9431 2.2 20.3835 2.2 19.8V5.5H0V3.3H4.4V2.2C4.4 1.61652 4.63178 1.05694 5.04436 0.644365C5.45694 0.231785 6.01652 0 6.6 0H13.2C13.7835 0 14.3431 0.231785 14.7556 0.644365C15.1682 1.05694 15.4 1.61652 15.4 2.2V3.3H19.8V5.5H17.6V19.8C17.6 20.3835 17.3682 20.9431 16.9556 21.3556C16.5431 21.7682 15.9835 22 15.4 22ZM4.4 5.5V19.8H15.4V5.5H4.4ZM6.6 2.2V3.3H13.2V2.2H6.6ZM13.2 17.6H11V7.7H13.2V17.6ZM8.8 17.6H6.6V7.7H8.8V17.6Z" fill="#D7D5D5"/>
</svg>
