<svg width="24" height="24" viewBox="0 0 24 24" fill="none" xmlns="http://www.w3.org/2000/svg">
<path fill-rule="evenodd" clip-rule="evenodd" d="M6 5C4.34315 5 3 6.34315 3 8V18C3 19.6569 4.34315 21 6 21H18C19.6569 21 21 19.6569 21 18V8C21 6.34315 19.6569 5 18 5H6ZM1 8C1 5.23858 3.23858 3 6 3H18C20.7614 3 23 5.23858 23 8V18C23 20.7614 20.7614 23 18 23H6C3.23858 23 1 20.7614 1 18V8Z" fill="#FFA652"/>
<path fill-rule="evenodd" clip-rule="evenodd" d="M8 1C8.55228 1 9 1.44772 9 2V6C9 6.55228 8.55228 7 8 7C7.44772 7 7 6.55228 7 6V2C7 1.44772 7.44772 1 8 1ZM16 1C16.5523 1 17 1.44772 17 2V6C17 6.55228 16.5523 7 16 7C15.4477 7 15 6.55228 15 6V2C15 1.44772 15.4477 1 16 1ZM1 10C1 9.44772 1.44772 9 2 9H22C22.5523 9 23 9.44772 23 10C23 10.5523 22.5523 11 22 11H2C1.44772 11 1 10.5523 1 10Z" fill="#FFA652"/>
</svg>
