<svg width="29" height="24" viewBox="0 0 29 24" fill="none" xmlns="http://www.w3.org/2000/svg">
<path d="M25.8462 3.69231H21.3626L20.2945 0.698901C20.2207 0.494071 20.0855 0.317017 19.9073 0.191926C19.7291 0.0668353 19.5166 -0.000192072 19.2989 4.13416e-07H9.18462C8.73956 4.13416e-07 8.34066 0.28022 8.19231 0.698901L7.12088 3.69231H2.63736C1.18022 3.69231 0 4.87253 0 6.32967V21.3626C0 22.8198 1.18022 24 2.63736 24H25.8462C27.3033 24 28.4835 22.8198 28.4835 21.3626V6.32967C28.4835 4.87253 27.3033 3.69231 25.8462 3.69231ZM26.1099 21.3626C26.1099 21.5077 25.9912 21.6264 25.8462 21.6264H2.63736C2.49231 21.6264 2.37363 21.5077 2.37363 21.3626V6.32967C2.37363 6.18462 2.49231 6.06593 2.63736 6.06593H8.79231L9.35604 4.49011L10.111 2.37363H18.3692L19.1242 4.49011L19.6879 6.06593H25.8462C25.9912 6.06593 26.1099 6.18462 26.1099 6.32967V21.3626ZM14.2418 8.17583C11.3275 8.17583 8.96703 10.5363 8.96703 13.4506C8.96703 16.3648 11.3275 18.7253 14.2418 18.7253C17.156 18.7253 19.5165 16.3648 19.5165 13.4506C19.5165 10.5363 17.156 8.17583 14.2418 8.17583ZM14.2418 16.6154C12.4945 16.6154 11.0769 15.1978 11.0769 13.4506C11.0769 11.7033 12.4945 10.2857 14.2418 10.2857C15.989 10.2857 17.4066 11.7033 17.4066 13.4506C17.4066 15.1978 15.989 16.6154 14.2418 16.6154Z" fill="white"/>
</svg>
