<svg width="21" height="25" viewBox="0 0 21 25" fill="none" xmlns="http://www.w3.org/2000/svg">
<path d="M17.1892 2.12505e-08C17.9019 -8.75361e-05 18.5881 0.270396 19.1091 0.756787C19.6301 1.24318 19.947 1.9092 19.9958 2.62026L20.002 2.81278V22.1872C20.0021 22.8999 19.7316 23.5861 19.2452 24.1071C18.7588 24.6281 18.0928 24.945 17.3817 24.9937L17.1892 25H2.81278C2.10005 25.0001 1.41387 24.7296 0.892898 24.2432C0.37193 23.7568 0.0550332 23.0908 0.00625079 22.3797L2.12505e-08 22.1872V2.81278C-8.75361e-05 2.10005 0.270396 1.41386 0.756787 0.892897C1.24318 0.37193 1.9092 0.0550332 2.62026 0.00625079L2.81278 2.12505e-08H17.1892ZM17.1892 1.87519H2.81278C2.58621 1.8752 2.36731 1.95725 2.19656 2.10617C2.0258 2.25509 1.91475 2.4608 1.88394 2.68527L1.87519 2.81278V22.1872C1.87519 22.6623 2.22772 23.0548 2.68527 23.1161L2.81278 23.1248H17.1892C17.4158 23.1248 17.6347 23.0428 17.8054 22.8938C17.9762 22.7449 18.0872 22.5392 18.1181 22.3147L18.1268 22.1872V2.81278C18.1268 2.58621 18.0448 2.36731 17.8958 2.19656C17.7469 2.0258 17.5412 1.91475 17.3167 1.88394L17.1892 1.87519ZM3.75038 17.188C3.75038 16.9393 3.84916 16.7008 4.02499 16.525C4.20082 16.3492 4.4393 16.2504 4.68797 16.2504H15.314C15.5627 16.2504 15.8012 16.3492 15.977 16.525C16.1528 16.7008 16.2516 16.9393 16.2516 17.188C16.2516 17.4366 16.1528 17.6751 15.977 17.8509C15.8012 18.0268 15.5627 18.1256 15.314 18.1256H4.68797C4.4393 18.1256 4.20082 18.0268 4.02499 17.8509C3.84916 17.6751 3.75038 17.4366 3.75038 17.188ZM3.75038 7.18697C3.75038 6.9383 3.84916 6.69982 4.02499 6.52399C4.20082 6.34816 4.4393 6.24938 4.68797 6.24938H15.314C15.5627 6.24938 15.8012 6.34816 15.977 6.52399C16.1528 6.69982 16.2516 6.9383 16.2516 7.18697C16.2516 7.43563 16.1528 7.67412 15.977 7.84995C15.8012 8.02578 15.5627 8.12456 15.314 8.12456H4.68797C4.4393 8.12456 4.20082 8.02578 4.02499 7.84995C3.84916 7.67412 3.75038 7.43563 3.75038 7.18697ZM3.75038 12.1875C3.75038 11.9388 3.84916 11.7003 4.02499 11.5245C4.20082 11.3487 4.4393 11.2499 4.68797 11.2499H15.314C15.5627 11.2499 15.8012 11.3487 15.977 11.5245C16.1528 11.7003 16.2516 11.9388 16.2516 12.1875C16.2516 12.4361 16.1528 12.6746 15.977 12.8504C15.8012 13.0263 15.5627 13.1251 15.314 13.1251H4.68797C4.4393 13.1251 4.20082 13.0263 4.02499 12.8504C3.84916 12.6746 3.75038 12.4361 3.75038 12.1875Z" fill="white"/>
</svg>
