<svg width="24" height="24" viewBox="0 0 24 24" fill="none" xmlns="http://www.w3.org/2000/svg">
<path d="M23.9327 19.7596L22.9474 16.0913L19.0179 1.40642C18.8872 0.920021 18.5686 0.505457 18.1323 0.253895C17.696 0.00233272 17.1776 -0.0656284 16.6911 0.0649564L13.0229 1.05028L12.9042 1.08589C12.7272 0.853775 12.4992 0.665557 12.2377 0.535851C11.9762 0.406146 11.6884 0.338443 11.3965 0.337998H7.59767C7.26349 0.338896 6.93562 0.429062 6.64797 0.599168C6.36031 0.429062 6.03244 0.338896 5.69826 0.337998H1.89942C1.39566 0.337998 0.912537 0.538114 0.556327 0.894325C0.200117 1.25053 0 1.73366 0 2.23742V21.2316C0 21.7354 0.200117 22.2185 0.556327 22.5747C0.912537 22.9309 1.39566 23.131 1.89942 23.131H5.69826C6.03244 23.1301 6.36031 23.04 6.64797 22.8699C6.93562 23.04 7.26349 23.1301 7.59767 23.131H11.3965C11.9003 23.131 12.3834 22.9309 12.7396 22.5747C13.0958 22.2185 13.2959 21.7354 13.2959 21.2316V9.40772L15.6108 18.0501L16.5962 21.7183C16.7037 22.124 16.9426 22.4826 17.2755 22.7382C17.6084 22.9938 18.0165 23.1319 18.4362 23.131C18.6001 23.1282 18.7632 23.1083 18.923 23.0717L22.5912 22.0863C22.8325 22.0215 23.0586 21.9095 23.2562 21.7566C23.4539 21.6038 23.6193 21.4132 23.7427 21.196C23.8693 20.9816 23.9514 20.7439 23.984 20.4971C24.0167 20.2503 23.9992 19.9995 23.9327 19.7596ZM14.7442 7.47269L18.4125 6.48737L20.8699 15.6639L17.2016 16.6493L14.7442 7.47269ZM17.1779 1.90502L17.9258 4.6473L14.2575 5.63263L13.5096 2.89034L17.1779 1.90502ZM11.3965 2.23742V16.4831H7.59767V2.23742H11.3965ZM5.69826 2.23742V5.08654H1.89942V2.23742H5.69826ZM1.89942 21.2316V6.98596H5.69826V21.2316H1.89942ZM11.3965 21.2316H7.59767V18.3825H11.3965V21.2316ZM22.1045 20.2463L18.4362 21.2316L17.6883 18.4774L21.3685 17.4921L22.1045 20.2463Z" fill="#FFA652"/>
</svg>
