<svg width="47" height="45" viewBox="0 0 47 45" fill="none" xmlns="http://www.w3.org/2000/svg">
<path d="M0.124355 29.992V36.515H4.82136V29.992H0.124355ZM1.46636 35.437V31.07H3.47936V35.437H1.46636ZM6.15236 38.924H7.51636V33.93H8.96836V32.808H7.51636V29.068H6.15236V38.924ZM16.2066 29.046V38.935H17.5816V29.046H16.2066ZM9.69461 33.259C9.69461 35.426 10.7946 36.779 12.2906 36.779C13.7756 36.779 14.8646 35.426 14.8646 33.259C14.8646 31.103 13.7756 29.75 12.2906 29.75C10.7946 29.75 9.69461 31.103 9.69461 33.259ZM11.0146 33.259C11.0146 31.785 11.5316 30.982 12.2906 30.982C13.0386 30.982 13.5556 31.785 13.5556 33.259C13.5556 34.733 13.0386 35.547 12.2906 35.547C11.5316 35.547 11.0146 34.733 11.0146 33.259ZM26.2719 29.068V38.924H27.5699V29.068H26.2719ZM18.9349 35.558L19.0779 36.669C20.2989 36.669 22.3009 36.625 23.8409 36.306L23.7419 35.327C23.4889 35.36 23.2249 35.393 22.9499 35.415V31.268H23.5879V30.19H19.0999V31.268H19.7269V35.558H18.9349ZM20.9479 35.525V31.268H21.7179V35.492C21.4649 35.514 21.2009 35.514 20.9479 35.525ZM23.3459 33.864H24.3249V38.451H25.5899V29.266H24.3249V32.676H23.3459V33.864ZM35.4351 29.046V38.935H36.8101V29.046H35.4351ZM28.9231 33.259C28.9231 35.426 30.0231 36.779 31.5191 36.779C33.0041 36.779 34.0931 35.426 34.0931 33.259C34.0931 31.103 33.0041 29.75 31.5191 29.75C30.0231 29.75 28.9231 31.103 28.9231 33.259ZM30.2431 33.259C30.2431 31.785 30.7601 30.982 31.5191 30.982C32.2671 30.982 32.7841 31.785 32.7841 33.259C32.7841 34.733 32.2671 35.547 31.5191 35.547C30.7601 35.547 30.2431 34.733 30.2431 33.259ZM38.5704 30.014V31.136H40.6494V31.763C40.6494 33.435 39.8024 35.25 38.1854 35.987L38.9554 37.065C40.1104 36.537 40.9244 35.448 41.3644 34.15C41.8044 35.338 42.6074 36.328 43.7404 36.823L44.4884 35.745C42.8714 35.063 42.0244 33.369 42.0244 31.763V31.136H44.0924V30.014H38.5704ZM45.0494 38.924H46.4134V29.068H45.0494V38.924Z" fill="#FF8F27"/>
<path fill-rule="evenodd" clip-rule="evenodd" d="M23.6741 8.29346C25.481 8.29346 26.9458 6.82866 26.9458 5.02173C26.9458 3.2148 25.481 1.75 23.6741 1.75C21.8671 1.75 20.4023 3.2148 20.4023 5.02173C20.4023 6.82866 21.8671 8.29346 23.6741 8.29346ZM23.6741 10.0435C26.4475 10.0435 28.6958 7.79515 28.6958 5.02173C28.6958 2.2483 26.4475 0 23.6741 0C20.9006 0 18.6523 2.2483 18.6523 5.02173C18.6523 7.79515 20.9006 10.0435 23.6741 10.0435Z" fill="#FF8F27"/>
<path fill-rule="evenodd" clip-rule="evenodd" d="M16.6654 19.1741H30.6824C30.2358 15.8385 27.3296 13.14 23.6739 13.14C20.0182 13.14 17.1119 15.8385 16.6654 19.1741ZM15.0134 19.06C15.5274 14.626 19.2718 11.314 23.6739 11.314C28.076 11.314 31.8204 14.626 32.3344 19.06C32.4647 20.1844 31.622 21.0001 30.7429 21.0001H16.6049C15.7258 21.0001 14.883 20.1844 15.0134 19.06Z" fill="#FF8F27"/>
</svg>
