<svg width="45" height="45" viewBox="0 0 45 45" fill="none" xmlns="http://www.w3.org/2000/svg">
<path d="M9.20061 29.343V30.355H10.4766V31.675H9.26661V32.687H16.4606V31.675H15.2506V30.355H16.5266V29.343H9.20061ZM8.41961 34.293H17.3296V33.226H8.41961V34.293ZM9.44261 35.855H14.8986V36.383H9.46461V38.847H16.5046V37.857H10.7956V37.307H16.2406V34.865H9.44261V35.855ZM11.8516 31.675V30.355H13.8976V31.675H11.8516ZM18.2979 30.025V31.125H20.7069V32.731H18.3089V36.724H19.0019C20.2009 36.724 21.2569 36.702 22.5329 36.482L22.4339 35.382C21.4219 35.547 20.5529 35.591 19.6289 35.602V33.809H22.0159V30.025H18.2979ZM22.9839 38.44H24.2489V33.897H25.1839V38.913H26.4819V29.057H25.1839V32.808H24.2489V29.244H22.9839V38.44ZM34.5451 29.057V32.137H31.8611V33.226H34.5451V38.946H35.9091V29.057H34.5451ZM28.1541 36.614H28.9901C30.4421 36.614 31.9381 36.537 33.5221 36.218L33.3791 35.096C32.0371 35.371 30.7501 35.47 29.5071 35.492V30.113H28.1541V36.614Z" fill="#FF8F27"/>
<path fill-rule="evenodd" clip-rule="evenodd" d="M28.404 1.90909H15.8182C14.7638 1.90909 13.9091 2.76382 13.9091 3.81818V17.1818C13.9091 18.2362 14.7638 19.0909 15.8182 19.0909H28.404C29.4584 19.0909 30.3131 18.2362 30.3131 17.1818V3.81818C30.3131 2.76382 29.4584 1.90909 28.404 1.90909ZM15.8182 0C13.7095 0 12 1.70946 12 3.81818V17.1818C12 19.2905 13.7095 21 15.8182 21H28.404C30.5128 21 32.2222 19.2905 32.2222 17.1818V3.81818C32.2222 1.70946 30.5128 0 28.404 0H15.8182Z" fill="#FF8F27"/>
<path fill-rule="evenodd" clip-rule="evenodd" d="M18.8228 6.99996C18.8228 6.47277 19.2501 6.04541 19.7773 6.04541H27.5551C28.0823 6.04541 28.5096 6.47277 28.5096 6.99996C28.5096 7.52714 28.0823 7.9545 27.5551 7.9545H19.7773C19.2501 7.9545 18.8228 7.52714 18.8228 6.99996Z" fill="#FF8F27"/>
<path fill-rule="evenodd" clip-rule="evenodd" d="M18.8228 10.8891C18.8228 10.3619 19.2501 9.93457 19.7773 9.93457H27.5551C28.0823 9.93457 28.5096 10.3619 28.5096 10.8891C28.5096 11.4163 28.0823 11.8437 27.5551 11.8437H19.7773C19.2501 11.8437 18.8228 11.4163 18.8228 10.8891Z" fill="#FF8F27"/>
<path fill-rule="evenodd" clip-rule="evenodd" d="M18.8228 14.7778C18.8228 14.2506 19.2501 13.8232 19.7773 13.8232H27.5551C28.0823 13.8232 28.5096 14.2506 28.5096 14.7778C28.5096 15.305 28.0823 15.7323 27.5551 15.7323H19.7773C19.2501 15.7323 18.8228 15.305 18.8228 14.7778Z" fill="#FF8F27"/>
<path d="M17.4442 7.00019C17.4442 7.42974 17.096 7.77797 16.6664 7.77797C16.2369 7.77797 15.8887 7.42974 15.8887 7.00019C15.8887 6.57064 16.2369 6.22241 16.6664 6.22241C17.096 6.22241 17.4442 6.57064 17.4442 7.00019Z" fill="#FF8F27"/>
<path d="M17.4442 10.8891C17.4442 11.3187 17.096 11.6669 16.6664 11.6669C16.2369 11.6669 15.8887 11.3187 15.8887 10.8891C15.8887 10.4596 16.2369 10.1113 16.6664 10.1113C17.096 10.1113 17.4442 10.4596 17.4442 10.8891Z" fill="#FF8F27"/>
<path d="M17.4442 14.778C17.4442 15.2076 17.096 15.5558 16.6664 15.5558C16.2369 15.5558 15.8887 15.2076 15.8887 14.778C15.8887 14.3485 16.2369 14.0002 16.6664 14.0002C17.096 14.0002 17.4442 14.3485 17.4442 14.778Z" fill="#FF8F27"/>
</svg>
