<svg width="45" height="45" viewBox="0 0 45 45" fill="none" xmlns="http://www.w3.org/2000/svg">
<path d="M9.24461 33.387V34.278H10.5866V35.785H9.29961V36.687H16.4166V35.785H15.1406V34.278H16.4826V33.387H9.24461ZM8.45261 38.249H17.2856V37.325H8.45261V38.249ZM9.48661 39.789H15.0306V40.427H9.50861V42.803H16.4716V41.923H10.6746V41.241H16.1856V38.931H9.48661V39.789ZM11.7746 35.785V34.278H13.9526V35.785H11.7746ZM18.3419 34.102V35.048H20.8829V36.797H18.3639V40.647H19.0239C20.2229 40.647 21.3009 40.614 22.5989 40.383L22.4999 39.426C21.4219 39.602 20.4869 39.657 19.4969 39.668V37.732H22.0269V34.102H18.3419ZM23.0829 42.396H24.1939V37.82H25.2939V42.88H26.4159V33.101H25.2939V36.863H24.1939V33.288H23.0829V42.396ZM34.6441 33.101V36.214H31.8501V37.171H34.6441V42.902H35.8211V33.101H34.6441ZM28.1981 40.57H28.9901C30.4861 40.57 31.9161 40.493 33.4891 40.174L33.3571 39.195C31.9821 39.481 30.6841 39.569 29.3641 39.58V34.168H28.1981V40.57Z" fill="#FF8F27"/>
<path fill-rule="evenodd" clip-rule="evenodd" d="M29.1852 2H16C14.8954 2 14 2.89543 14 4V18C14 19.1046 14.8954 20 16 20H29.1852C30.2898 20 31.1852 19.1046 31.1852 18V4C31.1852 2.89543 30.2898 2 29.1852 2ZM16 0C13.7909 0 12 1.79086 12 4V18C12 20.2091 13.7909 22 16 22H29.1852C31.3943 22 33.1852 20.2091 33.1852 18V4C33.1852 1.79086 31.3943 0 29.1852 0H16Z" fill="#FF8F27"/>
<path fill-rule="evenodd" clip-rule="evenodd" d="M19.1479 7.33325C19.1479 6.78097 19.5957 6.33325 20.1479 6.33325H28.2961C28.8484 6.33325 29.2961 6.78097 29.2961 7.33325C29.2961 7.88554 28.8484 8.33325 28.2961 8.33325H20.1479C19.5957 8.33325 19.1479 7.88554 19.1479 7.33325Z" fill="#FF8F27"/>
<path fill-rule="evenodd" clip-rule="evenodd" d="M19.1479 11.4075C19.1479 10.8552 19.5957 10.4075 20.1479 10.4075H28.2961C28.8484 10.4075 29.2961 10.8552 29.2961 11.4075C29.2961 11.9598 28.8484 12.4075 28.2961 12.4075H20.1479C19.5957 12.4075 19.1479 11.9598 19.1479 11.4075Z" fill="#FF8F27"/>
<path fill-rule="evenodd" clip-rule="evenodd" d="M19.1479 15.4814C19.1479 14.9292 19.5957 14.4814 20.1479 14.4814H28.2961C28.8484 14.4814 29.2961 14.9292 29.2961 15.4814C29.2961 16.0337 28.8484 16.4814 28.2961 16.4814H20.1479C19.5957 16.4814 19.1479 16.0337 19.1479 15.4814Z" fill="#FF8F27"/>
<path d="M17.7038 7.33337C17.7038 7.78338 17.339 8.14818 16.889 8.14818C16.439 8.14818 16.0742 7.78338 16.0742 7.33337C16.0742 6.88336 16.439 6.51855 16.889 6.51855C17.339 6.51855 17.7038 6.88336 17.7038 7.33337Z" fill="#FF8F27"/>
<path d="M17.7038 11.4073C17.7038 11.8574 17.339 12.2222 16.889 12.2222C16.439 12.2222 16.0742 11.8574 16.0742 11.4073C16.0742 10.9573 16.439 10.5925 16.889 10.5925C17.339 10.5925 17.7038 10.9573 17.7038 11.4073Z" fill="#FF8F27"/>
<path d="M17.7038 15.4816C17.7038 15.9316 17.339 16.2964 16.889 16.2964C16.439 16.2964 16.0742 15.9316 16.0742 15.4816C16.0742 15.0316 16.439 14.6667 16.889 14.6667C17.339 14.6667 17.7038 15.0316 17.7038 15.4816Z" fill="#FF8F27"/>
</svg>
