<svg width="45" height="45" viewBox="0 0 45 45" fill="none" xmlns="http://www.w3.org/2000/svg">
<path fill-rule="evenodd" clip-rule="evenodd" d="M20.29 0.620696C21.287 -0.206899 22.7321 -0.206898 23.7291 0.620696L31.0464 6.69471C31.6626 7.20619 32.0191 7.96543 32.0191 8.76623V18.3078C32.0191 19.7946 30.8137 21 29.3269 21H26.1128C24.6259 21 23.4205 19.7947 23.4205 18.3078V16.2566C23.4205 15.7609 23.0188 15.3592 22.5231 15.3592H21.496C21.0003 15.3592 20.5985 15.7609 20.5985 16.2566V18.3078C20.5985 19.7946 19.3932 21 17.9063 21H14.6922C13.2054 21 12 19.7947 12 18.3078V8.76623C12 7.96543 12.3565 7.20619 12.9727 6.69471L20.29 0.620696ZM22.5827 2.00171C22.2504 1.72585 21.7687 1.72585 21.4364 2.00171L14.119 8.07573C13.9136 8.24622 13.7948 8.4993 13.7948 8.76623V18.3078C13.7948 18.8034 14.1966 19.2052 14.6922 19.2052H17.9063C18.4019 19.2052 18.8037 18.8034 18.8037 18.3078V16.2566C18.8037 14.7697 20.0091 13.5643 21.496 13.5643H22.5231C24.01 13.5643 25.2154 14.7697 25.2154 16.2566V18.3078C25.2154 18.8034 25.6171 19.2052 26.1128 19.2052H29.3269C29.8225 19.2052 30.2243 18.8034 30.2243 18.3078V8.76623C30.2243 8.4993 30.1054 8.24622 29.9001 8.07573L22.5827 2.00171Z" fill="#FF8F27"/>
<path d="M18.5789 35.932V38.814H25.3769V35.932H18.5789ZM17.5339 35.404H26.4439V34.359H22.6709V33.842C24.3539 33.743 25.2779 33.27 25.2779 32.456C25.2779 31.532 24.1009 31.048 21.9889 31.048C19.8769 31.048 18.7109 31.532 18.7109 32.456C18.7109 33.27 19.6239 33.743 21.3069 33.842V34.359H17.5339V35.404ZM17.9629 30.795H25.9709V29.761H22.6709V28.98H21.3069V29.761H17.9629V30.795ZM19.9099 37.802V36.944H24.0459V37.802H19.9099ZM20.1629 32.456C20.1629 32.115 20.7459 31.961 21.9889 31.961C23.2429 31.961 23.8259 32.115 23.8259 32.456C23.8259 32.786 23.2429 32.94 21.9889 32.94C20.7459 32.94 20.1629 32.786 20.1629 32.456Z" fill="#FF8F27"/>
</svg>
