<svg width="45" height="45" viewBox="0 0 45 45" fill="none" xmlns="http://www.w3.org/2000/svg">
<path fill-rule="evenodd" clip-rule="evenodd" d="M20.2377 1.29102C21.3487 0.368813 22.959 0.368815 24.07 1.29102L32.2238 8.05942C32.9104 8.62937 33.3077 9.47541 33.3077 10.3678V21.0001C33.3077 22.657 31.9645 24.0001 30.3077 24.0001H26.7262C25.0693 24.0001 23.7262 22.657 23.7262 21.0001V18.7144C23.7262 18.1621 23.2784 17.7144 22.7262 17.7144H21.5815C21.0293 17.7144 20.5815 18.1621 20.5815 18.7144V21.0001C20.5815 22.657 19.2384 24.0001 17.5815 24.0001H14C12.3431 24.0001 11 22.657 11 21.0001V10.3678C11 9.47541 11.3973 8.62937 12.0839 8.05942L20.2377 1.29102ZM22.7926 2.82992C22.4222 2.52251 21.8855 2.52251 21.5151 2.82992L13.3613 9.59831C13.1324 9.7883 13 10.0703 13 10.3678V21.0001C13 21.5524 13.4477 22.0001 14 22.0001H17.5815C18.1338 22.0001 18.5815 21.5524 18.5815 21.0001V18.7144C18.5815 17.0575 19.9247 15.7144 21.5815 15.7144H22.7262C24.383 15.7144 25.7262 17.0575 25.7262 18.7144V21.0001C25.7262 21.5524 26.1739 22.0001 26.7262 22.0001H30.3077C30.86 22.0001 31.3077 21.5524 31.3077 21.0001V10.3678C31.3077 10.0703 31.1753 9.7883 30.9464 9.59831L22.7926 2.82992Z" fill="#767676"/>
<path d="M18.6229 39.932V42.759H25.3329V39.932H18.6229ZM17.5669 39.327H26.3999V38.403H22.5829V37.809C24.2769 37.721 25.2009 37.259 25.2009 36.434C25.2009 35.521 24.0569 35.037 21.9889 35.037C19.9209 35.037 18.7659 35.521 18.7659 36.434C18.7659 37.259 19.7009 37.721 21.3949 37.809V38.403H17.5669V39.327ZM18.0069 34.74H25.9269V33.838H22.5829V32.991H21.3949V33.838H18.0069V34.74ZM19.7779 41.879V40.812H24.1779V41.879H19.7779ZM20.0199 36.434C20.0199 36.038 20.6799 35.851 21.9889 35.851C23.2869 35.851 23.9469 36.038 23.9469 36.434C23.9469 36.819 23.2869 37.017 21.9889 37.017C20.6799 37.017 20.0199 36.819 20.0199 36.434Z" fill="#767676"/>
</svg>
