<svg width="250" height="150" viewBox="0 0 250 150" fill="none" xmlns="http://www.w3.org/2000/svg">
<path fill-rule="evenodd" clip-rule="evenodd" d="M197 64.6289C198.18 59.2634 200.741 51.628 204.385 51.6269C207.796 51.6259 207.784 53.7926 207.108 55.4944C206.991 55.7886 207.341 56.1343 207.619 55.9829C211.687 53.768 218.438 51.2598 221.522 62.7618C223.207 69.045 210.843 74.7836 202.587 75.6193L202.598 75.6454L143.292 101.258L138.402 89.9358L197 64.6289Z" fill="#FFE9D6"/>
<path d="M57.1694 65.3633L51.8836 76.3145L109.888 103.644L115.173 92.6926L57.1694 65.3633Z" fill="#FFE9D6"/>
<path d="M51.0069 52.6417C55.1703 52.795 57.5344 62.807 58.2112 67.8851C58.2195 67.947 58.2079 68.0076 58.1788 68.0627L53.8436 76.2907C53.7892 76.3939 53.6836 76.4569 53.5666 76.4508C45.4977 76.0296 31.5058 69.511 33.5512 62.9636C37.0462 51.7759 43.6604 54.4783 47.622 56.8023C47.8954 56.9626 48.2565 56.6305 48.1504 56.3325C47.5467 54.6372 47.6227 52.5171 51.0069 52.6417Z" fill="#FFE9D6"/>
<path fill-rule="evenodd" clip-rule="evenodd" d="M92.0086 105.895C91.8641 102.982 90.1639 100.372 87.5579 99.0613L74.8199 92.6571C71.2557 90.8651 69.5274 86.7444 70.7469 82.9459L73.8403 73.3111C75.1981 69.0822 79.7086 66.736 83.9507 68.052L104.191 74.3314C105.389 74.7029 106.654 74.7845 107.897 74.6136C113.031 73.9071 118.949 73.5876 125.31 73.5876C133.238 73.5876 140.644 74.0838 146.75 75.2067C148.145 75.4632 149.583 75.4093 150.935 74.9826L167.91 69.6265C172.25 68.2572 176.866 70.7313 178.128 75.1034L180.931 84.8144C182.048 88.6841 180.152 92.7868 176.48 94.4428L164.401 99.8913C161.63 101.141 159.793 103.837 159.642 106.872L157.459 141.548C157.245 145.86 153.687 149.245 149.37 149.245H102.329C98.0124 149.245 94.4544 145.86 94.2405 141.548L92.0086 105.895Z" fill="url(#paint0_radial_910_22901)"/>
<path d="M134.293 75.9667C134.293 80.8324 130.349 83.3086 125.483 83.3086C120.617 83.3086 116.673 80.8324 116.673 75.9667C116.673 71.1009 120.617 52.4727 125.483 52.4727C130.349 52.4727 134.293 71.1009 134.293 75.9667Z" fill="#FDCEA3"/>
<path d="M160.001 42.7614C162.095 42.6923 163.695 42.2649 165.432 41.4793C165.978 41.2324 166.614 41.6188 166.614 42.218V51.5776C166.614 51.8973 166.424 52.193 166.118 52.2848C162.973 53.2275 159.694 50.4808 158.18 48.6753C158.021 48.4857 157.971 48.2309 158.033 47.9912L159.226 43.3713C159.318 43.0181 159.637 42.7734 160.001 42.7614Z" fill="#FFA652" stroke="#FFA652" stroke-linecap="round"/>
<path d="M161.438 44.2908C160.874 41.1581 158.274 41.3645 157.07 41.5814L157.168 48.7328C159.253 48.8064 162.002 47.4234 161.438 44.2908Z" fill="#FFA652" stroke="#FFA652" stroke-linecap="round"/>
<path d="M156.161 44.1856C156.161 63.3582 144.623 76.6981 126.298 76.6981C107.972 76.6981 96.4348 63.3582 96.4348 44.1856C96.4348 25.0129 107.972 9.47046 126.298 9.47046C144.623 9.47046 156.161 25.0129 156.161 44.1856Z" fill="#FFE9D6"/>
<path d="M126.441 32.2261C108.441 32.2261 98.5876 35.3714 94.4251 36.995C94.3429 37.0271 94.2949 37.1074 94.3009 37.1955L94.9313 46.4598C94.9396 46.582 95.0478 46.6701 95.168 46.646C100.571 45.5608 114.016 43.4763 126.441 43.4763C138.854 43.4763 152.285 46.9658 157.699 48.0932C157.824 48.1193 157.935 48.0222 157.935 47.8941V37.1774C157.935 37.0983 157.893 37.0281 157.821 36.9956C154.226 35.3721 144.443 32.2261 126.441 32.2261Z" fill="#FFA652"/>
<path fill-rule="evenodd" clip-rule="evenodd" d="M94.821 37.3845L95.4127 46.0814C101.045 44.9756 114.228 42.9702 126.441 42.9702C137.078 42.9702 148.458 45.5182 154.917 46.9642C155.867 47.1769 156.71 47.3657 157.429 47.5191V37.3751C153.765 35.7639 144.084 32.7323 126.441 32.7323C108.806 32.7323 99.0451 35.7611 94.821 37.3845ZM94.2411 36.5235C98.4616 34.8772 108.377 31.72 126.441 31.72C144.499 31.72 154.355 34.8754 158.029 36.5343L157.821 36.9956L158.029 36.5343C158.295 36.6545 158.441 36.9138 158.441 37.1775V47.8941C158.441 48.319 158.058 48.6852 157.595 48.5888C156.785 48.4201 155.801 48.1998 154.67 47.9469C148.197 46.4986 136.951 43.9825 126.441 43.9825C114.061 43.9825 100.65 46.0611 95.2675 47.1423C94.8285 47.2304 94.4539 46.9014 94.4262 46.4942L93.7958 37.2299C93.7757 36.9341 93.941 36.6406 94.2411 36.5235L94.2411 36.5235Z" fill="#FFA652"/>
<path d="M104.314 13.81C99.262 18.4187 89.5854 29.6089 93.8225 42.7834C93.9651 43.2265 94.3958 43.5049 94.8477 43.4283C100.372 42.4922 111.084 37.8167 116.607 31.2085C117.02 30.7139 117.779 30.6871 118.257 31.1174C122.923 35.3193 135.808 39.6849 157.679 42.4713C158.099 42.5247 158.517 42.2942 158.693 41.9026C167.394 22.4717 144.71 3.30533 128.47 8.83018C128.205 8.92059 127.914 8.90041 127.662 8.7747C120.982 5.4365 111.794 6.98604 104.314 13.81Z" fill="url(#paint1_linear_910_22901)"/>
<path fill-rule="evenodd" clip-rule="evenodd" d="M127.443 9.22905C120.986 6.00207 112.012 7.46721 104.646 14.1869C102.145 16.4681 98.5108 20.3699 96.0276 25.3149C93.5479 30.2532 92.2292 36.2023 94.2951 42.6259C94.3647 42.8421 94.5672 42.9628 94.7661 42.9291C97.4644 42.4718 101.474 41.0902 105.501 38.9948C109.529 36.8992 113.525 34.1149 116.228 30.8806C116.835 30.1536 117.917 30.135 118.587 30.7383C120.835 32.763 125.135 34.8798 131.657 36.8397C138.162 38.7946 146.823 40.5781 157.741 41.969C157.951 41.9958 158.158 41.8769 158.24 41.6927C162.48 32.2236 159.095 22.796 152.588 16.3713C146.066 9.9315 136.522 6.62458 128.628 9.31022C128.238 9.44297 127.811 9.41323 127.443 9.22905ZM103.982 13.4331C111.577 6.50488 120.979 4.87093 127.881 8.32036C128.016 8.38758 128.172 8.39821 128.313 8.35013C136.658 5.51092 146.576 9.02477 153.28 15.6447C160 22.2797 163.606 32.1506 159.145 42.1125C158.877 42.7115 158.246 43.0536 157.617 42.9735C146.664 41.578 137.947 39.7855 131.375 37.8106C124.82 35.8407 120.345 33.6737 117.928 31.4965C117.642 31.2393 117.204 31.2743 116.985 31.5365C114.166 34.9103 110.044 37.7679 105.954 39.8961C101.863 42.0245 97.7552 43.4487 94.9294 43.9276C94.2244 44.0471 93.5655 43.611 93.3499 42.9408C91.1787 36.19 92.5798 29.9568 95.1421 24.8542C97.7009 19.7583 101.431 15.7607 103.982 13.4331Z" fill="#3E3E3E"/>
<path fill-rule="evenodd" clip-rule="evenodd" d="M113.097 52.7592C112.928 53.049 113.026 53.4209 113.316 53.5899L117.508 56.0358L113.474 57.0443C113.149 57.1257 112.951 57.4554 113.032 57.7809C113.114 58.1063 113.443 58.3042 113.769 58.2228L118.044 57.1539C119.013 56.9117 119.198 55.615 118.335 55.1118L113.928 52.5406C113.638 52.3716 113.266 52.4694 113.097 52.7592Z" fill="#111111"/>
<path fill-rule="evenodd" clip-rule="evenodd" d="M137.889 52.7391C138.069 53.0221 137.986 53.3976 137.703 53.5777L133.836 56.0383L137.536 57.0475C137.86 57.1358 138.051 57.4697 137.962 57.7933C137.874 58.117 137.54 58.3078 137.217 58.2195L133.295 57.1501C132.363 56.8957 132.175 55.6553 132.991 55.1363L137.05 52.5528C137.333 52.3727 137.709 52.4561 137.889 52.7391Z" fill="#111111"/>
<path d="M131.753 62.8958H119.881C119.517 62.8958 119.276 63.2716 119.444 63.5941C120.361 65.3575 122.212 67.9209 125.728 67.9209C129.328 67.9209 131.548 65.2354 132.192 63.471C132.299 63.1779 132.065 62.8958 131.753 62.8958Z" fill="#F37B7B"/>
<path d="M209.706 0.640969C210.471 -0.175324 211.752 -0.217577 212.568 0.546592L213.575 1.48945C214.392 2.25362 214.434 3.53484 213.67 4.35113L209.577 8.72335C208.812 9.53964 207.531 9.58189 206.715 8.81772L205.708 7.87487C204.891 7.1107 204.849 5.82948 205.613 5.01319L209.706 0.640969Z" fill="#FFDB80"/>
<path d="M7.6837 122.939C8.79151 122.787 9.81261 123.562 9.96439 124.67L10.1517 126.037C10.3034 127.145 9.52843 128.166 8.42061 128.318L2.48695 129.131C1.37914 129.283 0.358034 128.508 0.206253 127.4L0.0189823 126.033C-0.132798 124.925 0.642221 123.904 1.75003 123.752L7.6837 122.939Z" fill="#FFA652"/>
<path d="M31.5725 88.9131C32.508 89.5256 32.7698 90.7805 32.1573 91.716L31.4016 92.8702C30.789 93.8057 29.5342 94.0675 28.5987 93.455L23.5881 90.1742C22.6526 89.5617 22.3908 88.3068 23.0033 87.3713L23.7591 86.2171C24.3716 85.2816 25.6265 85.0198 26.562 85.6323L31.5725 88.9131Z" fill="#74E272"/>
<path d="M195.079 117.923C195.921 117.187 197.2 117.273 197.936 118.115L198.844 119.154C199.579 119.996 199.494 121.275 198.652 122.01L194.142 125.952C193.301 126.688 192.021 126.602 191.286 125.76L190.378 124.721C189.642 123.879 189.728 122.6 190.57 121.864L195.079 117.923Z" fill="#FFA652"/>
<path d="M248.178 99.1727C249.291 99.2848 250.102 100.278 249.99 101.39L249.851 102.763C249.739 103.875 248.746 104.686 247.634 104.574L241.675 103.974C240.562 103.861 239.751 102.869 239.864 101.756L240.002 100.383C240.114 99.2708 241.107 98.4599 242.219 98.572L248.178 99.1727Z" fill="#FFA652"/>
<path d="M67.9666 24.6675C69.0103 25.0687 69.5312 26.24 69.13 27.2837L68.635 28.5715C68.2338 29.6152 67.0625 30.1361 66.0188 29.7349L60.4284 27.5861C59.3847 27.1849 58.8639 26.0136 59.265 24.9699L59.76 23.6821C60.1612 22.6384 61.3325 22.1175 62.3763 22.5187L67.9666 24.6675Z" fill="#FFA652"/>
<path d="M19.4457 19.6033C19.3858 20.7198 18.4322 21.5765 17.3156 21.5167L15.938 21.4429C14.8214 21.383 13.9648 20.4294 14.0246 19.3128L14.345 13.3323C14.4048 12.2158 15.3584 11.3591 16.475 11.4189L17.8527 11.4927C18.9692 11.5525 19.8259 12.5062 19.7661 13.6228L19.4457 19.6033Z" fill="#FFDB80"/>
<path d="M237.18 46.1311C236.873 45.0561 237.495 43.9353 238.57 43.628L239.897 43.2487C240.972 42.9413 242.092 43.5637 242.4 44.6388L244.046 50.3971C244.354 51.4722 243.731 52.5929 242.656 52.9003L241.33 53.2795C240.255 53.5869 239.134 52.9646 238.827 51.8895L237.18 46.1311Z" fill="#74E272"/>
<defs>
<radialGradient id="paint0_radial_910_22901" cx="0" cy="0" r="1" gradientUnits="userSpaceOnUse" gradientTransform="translate(162.707 80.8366) rotate(115.395) scale(86.0514 113.566)">
<stop stop-color="#FFAA5A"/>
<stop offset="1" stop-color="#F57702"/>
</radialGradient>
<linearGradient id="paint1_linear_910_22901" x1="151.934" y1="15.7472" x2="116.53" y2="43.0325" gradientUnits="userSpaceOnUse">
<stop stop-color="#4A4A4A"/>
<stop offset="1" stop-color="#2C2B2B"/>
</linearGradient>
</defs>
</svg>
