<svg width="47" height="45" viewBox="0 0 47 45" fill="none" xmlns="http://www.w3.org/2000/svg">
<path d="M0.190355 34.047V40.46H4.77736V34.047H0.190355ZM1.34536 39.514V34.982H3.62236V39.514H1.34536ZM6.26236 42.88H7.45036V37.864H8.93536V36.885H7.45036V33.101H6.26236V42.88ZM16.3276 33.09V42.902H17.5156V33.09H16.3276ZM9.76061 37.259C9.76061 39.382 10.8166 40.735 12.2906 40.735C13.7646 40.735 14.8206 39.382 14.8206 37.259C14.8206 35.147 13.7646 33.805 12.2906 33.805C10.8166 33.805 9.76061 35.147 9.76061 37.259ZM10.9046 37.259C10.9046 35.763 11.4656 34.883 12.2906 34.883C13.1156 34.883 13.6876 35.763 13.6876 37.259C13.6876 38.777 13.1156 39.657 12.2906 39.657C11.4656 39.657 10.9046 38.777 10.9046 37.259ZM26.3599 33.101V42.88H27.4929V33.101H26.3599ZM18.9569 39.602L19.0889 40.581C20.3319 40.581 22.3229 40.548 23.8519 40.229L23.7749 39.371C23.4999 39.415 23.2029 39.437 22.8949 39.47V35.213H23.5989V34.256H19.1439V35.213H19.8369V39.602H18.9569ZM20.9039 39.58V35.213H21.8279V39.536L20.9039 39.58ZM23.3349 37.776H24.4349V42.396H25.5459V33.31H24.4349V36.731H23.3349V37.776ZM35.5561 33.09V42.902H36.7441V33.09H35.5561ZM28.9891 37.259C28.9891 39.382 30.0451 40.735 31.5191 40.735C32.9931 40.735 34.0491 39.382 34.0491 37.259C34.0491 35.147 32.9931 33.805 31.5191 33.805C30.0451 33.805 28.9891 35.147 28.9891 37.259ZM30.1331 37.259C30.1331 35.763 30.6941 34.883 31.5191 34.883C32.3441 34.883 32.9161 35.763 32.9161 37.259C32.9161 38.777 32.3441 39.657 31.5191 39.657C30.6941 39.657 30.1331 38.777 30.1331 37.259ZM38.5924 34.058V35.048H40.7374V35.895C40.7374 37.556 39.7804 39.382 38.2404 40.097L38.9114 41.021C40.0554 40.482 40.9134 39.338 41.3534 37.996C41.8044 39.239 42.6514 40.273 43.7844 40.779L44.4444 39.844C42.8934 39.195 41.9364 37.512 41.9364 35.895V35.048H44.0814V34.058H38.5924ZM45.1594 42.88H46.3474V33.101H45.1594V42.88Z" fill="#767676"/>
<path fill-rule="evenodd" clip-rule="evenodd" d="M23.5 9.08333C25.479 9.08333 27.0833 7.47902 27.0833 5.5C27.0833 3.52098 25.479 1.91667 23.5 1.91667C21.521 1.91667 19.9167 3.52098 19.9167 5.5C19.9167 7.47902 21.521 9.08333 23.5 9.08333ZM23.5 11C26.5376 11 29 8.53757 29 5.5C29 2.46243 26.5376 0 23.5 0C20.4624 0 18 2.46243 18 5.5C18 8.53757 20.4624 11 23.5 11Z" fill="#767676"/>
<path fill-rule="evenodd" clip-rule="evenodd" d="M15.824 21.0001H31.176C30.6869 17.3469 27.5039 14.3914 23.5 14.3914C19.4961 14.3914 16.3131 17.3469 15.824 21.0001ZM14.0147 20.8751C14.5776 16.0188 18.6787 12.3914 23.5 12.3914C28.3213 12.3914 32.4224 16.0188 32.9853 20.8751C33.1281 22.1066 32.2051 23.0001 31.2423 23.0001H15.7577C14.7949 23.0001 13.8719 22.1066 14.0147 20.8751Z" fill="#767676"/>
</svg>
