<svg width="52" height="52" viewBox="0 0 52 52" fill="none" xmlns="http://www.w3.org/2000/svg">
<g clip-path="url(#clip0_883_166)">
<rect width="52" height="52" rx="26" fill="#ECECEC"/>
<path d="M25.8711 40.4335C20.0765 40.4335 14.9932 42.6888 11.5804 44.8901C9.12884 46.4715 8 49.3325 8 52.2499V83.6479C8 89.723 12.9249 94.6479 19 94.6479H33.3007C39.3758 94.6479 44.3007 89.723 44.3007 83.6479V52.4903C44.3007 49.4316 43.0552 46.45 40.4458 44.8541C36.8651 42.6642 31.6341 40.4335 25.8711 40.4335Z" fill="#FF8F27"/>
<path d="M29.7804 41.829C29.7804 44.1202 27.923 45.2862 25.6318 45.2862C23.3406 45.2862 21.4832 44.1202 21.4832 41.829C21.4832 39.5378 23.3406 30.7659 25.6318 30.7659C27.923 30.7659 29.7804 39.5378 29.7804 41.829Z" fill="#FFE9D5"/>
<path d="M42.2136 26.1755C42.7952 26.1315 43.3002 26.0226 43.7996 25.8486C44.3655 25.6516 45.0001 26.0329 45.0001 26.6321V30.0658C45.0001 30.3855 44.8109 30.6888 44.4954 30.7399C43.1894 30.9511 41.8766 29.9218 41.1654 29.1345C40.9994 28.9508 40.9496 28.6944 41.0115 28.4548L41.4395 26.7977C41.5307 26.4446 41.8499 26.203 42.2136 26.1755Z" fill="#FFA652" stroke="#FFA652" stroke-linecap="round"/>
<path d="M42.5623 26.9134C42.2966 25.4383 41.0725 25.5354 40.5056 25.6375L40.5517 29.0051C41.5334 29.0397 42.8281 28.3885 42.5623 26.9134Z" fill="#FFA652" stroke="#FFA652" stroke-linecap="round"/>
<path d="M40.4245 26.8638C40.4245 35.892 34.7404 42.1736 25.7122 42.1736C16.6841 42.1736 11 35.892 11 26.8638C11 17.8357 16.6841 10.5169 25.7122 10.5169C34.7404 10.5169 40.4245 17.8357 40.4245 26.8638Z" fill="#FFF5EC"/>
<path d="M21.5 32.5C21.5 32.8293 21.4101 33.1048 21.2911 33.2833C21.1697 33.4654 21.057 33.5 21 33.5C20.943 33.5 20.8303 33.4654 20.7089 33.2833C20.5899 33.1048 20.5 32.8293 20.5 32.5C20.5 32.1707 20.5899 31.8952 20.7089 31.7167C20.8303 31.5346 20.943 31.5 21 31.5C21.057 31.5 21.1697 31.5346 21.2911 31.7167C21.4101 31.8952 21.5 32.1707 21.5 32.5Z" fill="#3E3E3E" stroke="#3E3E3E"/>
<path d="M30.5 32.5C30.5 32.8293 30.4101 33.1048 30.2911 33.2833C30.1697 33.4654 30.057 33.5 30 33.5C29.943 33.5 29.8303 33.4654 29.7089 33.2833C29.5899 33.1048 29.5 32.8293 29.5 32.5C29.5 32.1707 29.5899 31.8952 29.7089 31.7167C29.8303 31.5346 29.943 31.5 30 31.5C30.057 31.5 30.1697 31.5346 30.2911 31.7167C30.4101 31.8952 30.5 32.1707 30.5 32.5Z" fill="#3E3E3E" stroke="#3E3E3E"/>
<path d="M22 29.88L19.8 29" stroke="#3E3E3E" stroke-width="0.7" stroke-linecap="round"/>
<path d="M30.989 28.9733L28.8111 29.9067" stroke="#3E3E3E" stroke-width="0.7" stroke-linecap="round"/>
<path d="M24 37.231V37.231C24.8797 37.9248 26.1203 37.9248 27 37.231V37.231" stroke="#3E3E3E" stroke-width="0.7" stroke-linecap="round"/>
<path d="M26.0833 21.2322C17.7088 21.2322 13.0791 22.678 11.0789 23.45C10.9976 23.4814 10.9481 23.5617 10.954 23.6486L11.2375 27.8153C11.2457 27.936 11.3577 28.022 11.4764 27.9986C14.0946 27.4815 20.3221 26.5298 26.0833 26.5298C31.8325 26.5298 38.0462 28.1196 40.6738 28.6769C40.7976 28.7031 40.9135 28.6084 40.9135 28.4819V23.6308C40.9135 23.5527 40.8697 23.4822 40.7982 23.4506C39.0569 22.6787 34.4598 21.2322 26.0833 21.2322Z" fill="#FFA652" stroke="#FFA652"/>
<path d="M15.2881 12.5603C12.918 14.6846 8.42387 19.7784 10.1397 25.8114C10.2658 26.2545 10.7048 26.5258 11.1555 26.4302C13.7412 25.8818 18.1379 23.9458 20.7397 21.2391C21.1842 20.7766 21.9627 20.7432 22.4845 21.1163C25.0383 22.9427 30.9473 24.7868 40.4973 26.0098C40.919 26.0638 41.3367 25.8414 41.4999 25.4488C45.2173 16.5032 34.7559 7.81323 27.087 10.1449C26.8174 10.2269 26.5261 10.2066 26.2695 10.0905C23.0872 8.65 18.7959 9.41643 15.2881 12.5603Z" fill="#3E3E3E" stroke="#3E3E3E" stroke-linecap="round"/>
</g>
<defs>
<clipPath id="clip0_883_166">
<rect width="52" height="52" rx="26" fill="white"/>
</clipPath>
</defs>
</svg>
