<svg width="9" height="11" viewBox="0 0 9 11" fill="none" xmlns="http://www.w3.org/2000/svg">
<path d="M4.4 5.5C3.795 5.5 3.3 5.005 3.3 4.4C3.3 3.795 3.795 3.3 4.4 3.3C5.005 3.3 5.5 3.795 5.5 4.4C5.5 5.005 5.005 5.5 4.4 5.5ZM7.7 4.51C7.7 2.5135 6.2425 1.1 4.4 1.1C2.5575 1.1 1.1 2.5135 1.1 4.51C1.1 5.797 2.1725 7.502 4.4 9.537C6.6275 7.502 7.7 5.797 7.7 4.51ZM4.4 0C6.71 0 8.8 1.771 8.8 4.51C8.8 6.336 7.3315 8.4975 4.4 11C1.4685 8.4975 0 6.336 0 4.51C0 1.771 2.09 0 4.4 0Z" fill="#9F9E9E"/>
</svg>
