<svg width="45" height="45" viewBox="0 0 45 45" fill="none" xmlns="http://www.w3.org/2000/svg">
<path fill-rule="evenodd" clip-rule="evenodd" d="M12.9545 0C13.4817 0 13.9091 0.427365 13.9091 0.954545V18.1364C13.9091 18.6635 14.3365 19.0909 14.8636 19.0909H31.2818C31.809 19.0909 32.2364 19.5183 32.2364 20.0455C32.2364 20.5726 31.809 21 31.2818 21H14.8636C13.2821 21 12 19.7179 12 18.1364V0.954545C12 0.427365 12.4274 0 12.9545 0Z" fill="#767676"/>
<path fill-rule="evenodd" clip-rule="evenodd" d="M30.4872 5.80488C29.6638 4.73272 28.0176 4.83252 27.3297 5.99629L25.2313 9.54631C24.1223 11.4226 21.6702 11.9914 19.8484 10.7949L19.2795 10.4213C18.4146 9.85324 17.2546 10.0776 16.664 10.9272L13.7384 15.1355C13.4375 15.5684 12.8426 15.6753 12.4098 15.3744C11.9769 15.0735 11.87 14.4786 12.1709 14.0458L15.0965 9.83751C16.2778 8.13829 18.5977 7.6895 20.3275 8.82557L20.8964 9.19918C21.8073 9.79744 23.0334 9.51305 23.5879 8.57489L25.6862 5.02488C27.062 2.69733 30.3545 2.49774 32.0013 4.64206L32.0389 4.69105C32.3601 5.10916 32.2814 5.7084 31.8633 6.02951C31.4452 6.35061 30.846 6.27198 30.5249 5.85387L30.4872 5.80488Z" fill="#767676"/>
<path d="M12.7157 34.15V35.217H21.6257V34.15H17.8527V33.523H20.6797V32.489H15.1907V31.906H20.3827V30.905H15.1907V30.355H20.6027V29.321H13.8377V33.523H16.4887V34.15H12.7157ZM13.7497 37.307C13.7497 38.363 14.9927 38.924 17.1597 38.924C19.3267 38.924 20.5807 38.363 20.5807 37.307C20.5807 36.262 19.3267 35.701 17.1597 35.701C14.9927 35.701 13.7497 36.262 13.7497 37.307ZM15.1137 37.307C15.1137 36.889 15.7737 36.691 17.1597 36.691C18.5457 36.691 19.2167 36.889 19.2167 37.307C19.2167 37.736 18.5457 37.923 17.1597 37.923C15.7737 37.923 15.1137 37.736 15.1137 37.307ZM26.081 34.139V35.228H27.489V38.473H28.754V29.277H27.489V31.686H26.488C26.543 31.224 26.576 30.74 26.576 30.234H22.759V31.323H25.234C25.047 33.281 24.178 34.722 22.209 35.91L22.979 36.867C24.816 35.778 25.817 34.392 26.268 32.764H27.489V34.139H26.081ZM29.513 38.913H30.811V29.057H29.513V38.913Z" fill="#767676"/>
</svg>
