<svg width="45" height="46" viewBox="0 0 45 46" fill="none" xmlns="http://www.w3.org/2000/svg">
<path fill-rule="evenodd" clip-rule="evenodd" d="M13 0C13.5523 0 14 0.447715 14 1V19C14 19.5523 14.4477 20 15 20H32.2C32.7523 20 33.2 20.4477 33.2 21C33.2 21.5523 32.7523 22 32.2 22H15C13.3431 22 12 20.6569 12 19V1C12 0.447715 12.4477 0 13 0Z" fill="#767676"/>
<path fill-rule="evenodd" clip-rule="evenodd" d="M31.3676 6.08148C30.5049 4.95826 28.7803 5.06281 28.0597 6.282L25.8614 10.0011C24.6995 11.9667 22.1307 12.5626 20.2221 11.3091L19.6262 10.9177C18.7201 10.3226 17.5049 10.5577 16.8861 11.4478L13.8212 15.8564C13.5059 16.3099 12.8827 16.4219 12.4293 16.1067C11.9758 15.7914 11.8638 15.1683 12.179 14.7148L15.2439 10.3061C16.4815 8.526 18.9119 8.05584 20.7241 9.24601L21.32 9.63742C22.2743 10.2642 23.5588 9.96623 24.1397 8.98339L26.3379 5.26433C27.7792 2.82595 31.2285 2.61685 32.9538 4.86328L32.9932 4.91461C33.3296 5.35262 33.2472 5.98041 32.8092 6.3168C32.3712 6.6532 31.7434 6.57082 31.407 6.1328L31.3676 6.08148Z" fill="#767676"/>
<path d="M12.7597 39.205V40.14H21.5927V39.205H17.7647V38.446H20.6247V37.544H15.0587V36.829H20.3167V35.949H15.0587V35.278H20.5477V34.365H13.8817V38.446H16.5767V39.205H12.7597ZM13.7937 42.296C13.7937 43.319 15.0257 43.869 17.1707 43.869C19.3047 43.869 20.5367 43.319 20.5367 42.296C20.5367 41.251 19.3047 40.712 17.1707 40.712C15.0257 40.712 13.7937 41.251 13.7937 42.296ZM14.9817 42.296C14.9817 41.812 15.7187 41.581 17.1707 41.581C18.6117 41.581 19.3487 41.812 19.3487 42.296C19.3487 42.78 18.6117 43 17.1707 43C15.7187 43 14.9817 42.78 14.9817 42.296ZM26.081 39.183V40.129H27.621V43.407H28.732V34.332H27.621V36.741H26.455C26.521 36.268 26.554 35.784 26.554 35.289H22.781V36.246H25.388C25.212 38.226 24.277 39.777 22.286 40.976L22.957 41.823C24.794 40.734 25.806 39.326 26.257 37.687H27.621V39.183H26.081ZM29.612 43.88H30.734V34.101H29.612V43.88Z" fill="#767676"/>
</svg>
