<svg width="255" height="200" viewBox="0 0 255 200" fill="none" xmlns="http://www.w3.org/2000/svg">
<g filter="url(#filter0_f_1116_22039)">
<path fill-rule="evenodd" clip-rule="evenodd" d="M170.12 10.8223C164.891 10.8223 160.651 15.0619 160.651 20.2918C160.651 25.5216 164.891 29.7613 170.12 29.7613C171.366 29.7613 172.375 30.7707 172.375 32.0159C172.375 33.2611 171.366 34.2705 170.12 34.2705C162.4 34.2705 156.142 28.012 156.142 20.2918C156.142 12.5715 162.4 6.31299 170.12 6.31299C177.841 6.31299 184.099 12.5715 184.099 20.2918V22.5464H179.59V20.2918C179.59 15.0619 175.35 10.8223 170.12 10.8223Z" fill="#FF7425" fill-opacity="0.5"/>
</g>
<g filter="url(#filter1_f_1116_22039)">
<path fill-rule="evenodd" clip-rule="evenodd" d="M132.243 10.8223C127.014 10.8223 122.774 15.0619 122.774 20.2918C122.774 25.5216 127.014 29.7613 132.243 29.7613C133.489 29.7613 134.498 30.7707 134.498 32.0159C134.498 33.2611 133.489 34.2705 132.243 34.2705C124.523 34.2705 118.265 28.012 118.265 20.2918C118.265 12.5715 124.523 6.31299 132.243 6.31299C139.964 6.31299 146.222 12.5715 146.222 20.2918V22.5464H141.713V20.2918C141.713 15.0619 137.473 10.8223 132.243 10.8223Z" fill="#FF7425" fill-opacity="0.5"/>
</g>
<g filter="url(#filter2_f_1116_22039)">
<path fill-rule="evenodd" clip-rule="evenodd" d="M94.3645 10.8223C89.1347 10.8223 84.895 15.0619 84.895 20.2918C84.895 25.5216 89.1347 29.7613 94.3645 29.7613C95.6097 29.7613 96.6192 30.7707 96.6192 32.0159C96.6192 33.2611 95.6097 34.2705 94.3645 34.2705C86.6443 34.2705 80.3857 28.012 80.3857 20.2918C80.3857 12.5715 86.6443 6.31299 94.3645 6.31299C102.085 6.31299 108.343 12.5715 108.343 20.2918V22.5464H103.834V20.2918C103.834 15.0619 99.5944 10.8223 94.3645 10.8223Z" fill="#FF7425" fill-opacity="0.5"/>
</g>
<g filter="url(#filter3_d_1116_22039)">
<rect x="15" y="16.6843" width="225" height="154" rx="40" fill="white"/>
</g>
<path fill-rule="evenodd" clip-rule="evenodd" d="M164.929 4.50928C159.699 4.50928 155.459 8.74892 155.459 13.9788C155.459 19.2086 159.699 23.4483 164.929 23.4483C166.174 23.4483 167.184 24.4577 167.184 25.7029C167.184 26.9481 166.174 27.9576 164.929 27.9576C157.209 27.9576 150.95 21.699 150.95 13.9788C150.95 6.25851 157.209 0 164.929 0C172.649 0 178.908 6.25851 178.908 13.9788V16.2334H174.398V13.9788C174.398 8.74892 170.159 4.50928 164.929 4.50928Z" fill="url(#paint0_linear_1116_22039)"/>
<path fill-rule="evenodd" clip-rule="evenodd" d="M127.954 4.50928C122.725 4.50928 118.485 8.74892 118.485 13.9788C118.485 19.2086 122.725 23.4483 127.954 23.4483C129.2 23.4483 130.209 24.4577 130.209 25.7029C130.209 26.9481 129.2 27.9576 127.954 27.9576C120.234 27.9576 113.976 21.699 113.976 13.9788C113.976 6.25851 120.234 0 127.954 0C135.675 0 141.933 6.25851 141.933 13.9788V16.2334H137.424V13.9788C137.424 8.74892 133.184 4.50928 127.954 4.50928Z" fill="url(#paint1_linear_1116_22039)"/>
<path fill-rule="evenodd" clip-rule="evenodd" d="M90.9788 4.50928C85.7489 4.50928 81.5093 8.74892 81.5093 13.9788C81.5093 19.2086 85.7489 23.4483 90.9788 23.4483C92.224 23.4483 93.2334 24.4577 93.2334 25.7029C93.2334 26.9481 92.224 27.9576 90.9788 27.9576C83.2585 27.9576 77 21.699 77 13.9788C77 6.25851 83.2585 0 90.9788 0C98.699 0 104.958 6.25851 104.958 13.9788V16.2334H100.448V13.9788C100.448 8.74892 96.2086 4.50928 90.9788 4.50928Z" fill="url(#paint2_linear_1116_22039)"/>
<path fill-rule="evenodd" clip-rule="evenodd" d="M43 95.3696C43 94.9836 43.3129 94.6707 43.6989 94.6707H211.441C211.827 94.6707 212.139 94.9836 212.139 95.3696C212.139 95.7556 211.827 96.0685 211.441 96.0685H43.6989C43.3129 96.0685 43 95.7556 43 95.3696Z" fill="#ECECEC"/>
<path fill-rule="evenodd" clip-rule="evenodd" d="M43 131.714C43 131.328 43.3129 131.015 43.6989 131.015H211.441C211.827 131.015 212.139 131.328 212.139 131.714C212.139 132.1 211.827 132.412 211.441 132.412H43.6989C43.3129 132.412 43 132.1 43 131.714Z" fill="#ECECEC"/>
<path d="M179.956 74.033V87.1839H181.254V74.033H179.956ZM170.205 79.7138C170.205 82.5766 171.308 84.3509 173.008 84.3509C174.618 84.3509 175.692 82.7853 175.811 80.2059H177.317V86.5428H178.599V74.3163H177.317V79.0876H175.811C175.662 76.6125 174.589 75.0916 173.008 75.0916C171.308 75.0916 170.205 76.8659 170.205 79.7138ZM171.442 79.7138C171.442 77.6114 172.039 76.3739 173.008 76.3739C173.992 76.3739 174.589 77.6114 174.589 79.7138C174.589 81.8311 173.992 83.0686 173.008 83.0686C172.039 83.0686 171.442 81.8311 171.442 79.7138Z" fill="#111111"/>
<path d="M73.4814 113.165C70.7379 113.165 68.7548 114.507 68.7548 116.565C68.7548 118.488 70.4695 119.771 72.9297 119.935V122.723H67.5918V123.647H79.4157V122.723H74.0331V119.935C76.4933 119.771 78.208 118.503 78.208 116.565C78.208 114.507 76.2398 113.165 73.4814 113.165ZM69.8433 116.565C69.8433 115.059 71.379 114.06 73.4814 114.06C75.5838 114.06 77.1344 115.059 77.1344 116.565C77.1344 118.056 75.5838 119.07 73.4814 119.07C71.379 119.07 69.8433 118.056 69.8433 116.565Z" fill="#111111"/>
<path d="M89.4209 112.315V121.858H90.5392V112.315H89.4209ZM80.0274 119.085L80.6238 119.979C82.1596 119.353 83.3375 118.056 83.8892 116.445C84.4558 117.951 85.6188 119.159 87.1098 119.741L87.7062 118.846C85.7828 118.13 84.4259 116.341 84.4259 114.358V113.016H83.3077V114.358C83.3077 116.416 81.9657 118.324 80.0274 119.085ZM82.2043 125.049H90.9567V124.124H83.3226V120.993H82.2043V125.049Z" fill="#111111"/>
<path d="M104.443 112.3V115.998H101.58V116.938H104.443V121.157H105.561V112.3H104.443ZM95.0793 119.398L95.5713 120.292C99.284 119.085 101.535 116.684 101.535 113.329H95.7055V114.254H100.328C100.104 116.61 98.1806 118.414 95.0793 119.398ZM96.4361 124.423L96.8834 125.317C98.8069 124.929 100.596 123.901 101.371 122.335C102.147 123.871 103.921 124.9 105.83 125.272L106.292 124.393C104.026 123.975 101.923 122.529 101.923 120.62V120.009H100.82V120.62C100.82 122.559 98.7025 124.005 96.4361 124.423Z" fill="#111111"/>
<path d="M113.032 112.539C110.169 112.539 108.454 113.329 108.454 114.79C108.454 116.252 110.169 117.057 113.032 117.057C115.895 117.057 117.609 116.252 117.609 114.79C117.609 113.329 115.895 112.539 113.032 112.539ZM107.142 118.876H118.921V117.966H107.142V118.876ZM108.574 120.889H116.312V122.097H108.618V125.198H117.803V124.318H109.707V122.917H117.4V120.024H108.574V120.889ZM109.602 114.79C109.602 113.896 110.885 113.374 113.032 113.374C115.179 113.374 116.461 113.896 116.461 114.79C116.461 115.7 115.179 116.207 113.032 116.207C110.885 116.207 109.602 115.7 109.602 114.79Z" fill="#111111"/>
<path d="M131.081 112.3V122.499H132.199V117.817H134.152V116.878H132.199V112.3H131.081ZM122.06 120.069L122.209 120.978C124.475 120.978 127.606 120.919 130.38 120.412L130.29 119.606C129.157 119.785 127.92 119.89 126.697 119.964V118.995C128.203 118.861 129.157 118.13 129.157 117.012C129.157 115.775 127.949 115.014 126.13 115.014C124.311 115.014 123.118 115.775 123.118 117.012C123.118 118.13 124.088 118.861 125.594 118.995V120.009C124.311 120.054 123.104 120.069 122.06 120.069ZM122.388 114.448H129.888V113.598H126.697V112.241H125.594V113.598H122.388V114.448ZM124.013 125.049H132.661V124.124H125.131V121.828H124.013V125.049ZM124.177 117.012C124.177 116.281 124.938 115.819 126.13 115.819C127.338 115.819 128.099 116.281 128.099 117.012C128.099 117.758 127.338 118.22 126.13 118.22C124.938 118.22 124.177 117.758 124.177 117.012Z" fill="#111111"/>
<path d="M137.955 113.076C136.031 113.076 134.6 114.358 134.6 116.177C134.6 117.996 136.031 119.264 137.955 119.264C139.058 119.264 139.982 118.846 140.594 118.145H143.993V120.024H145.112V112.3H143.993V114.209H140.594C139.997 113.508 139.058 113.076 137.955 113.076ZM135.673 116.177C135.673 114.925 136.643 114.045 137.955 114.045C139.267 114.045 140.221 114.925 140.221 116.177C140.221 117.415 139.267 118.294 137.955 118.294C136.643 118.294 135.673 117.415 135.673 116.177ZM136.493 122.827C136.493 124.408 138.148 125.317 140.832 125.317C143.501 125.317 145.156 124.408 145.156 122.827C145.156 121.262 143.501 120.337 140.832 120.337C138.148 120.337 136.493 121.262 136.493 122.827ZM137.597 122.827C137.597 121.828 138.834 121.232 140.832 121.232C142.83 121.232 144.053 121.828 144.053 122.827C144.053 123.826 142.83 124.437 140.832 124.437C138.834 124.437 137.597 123.826 137.597 122.827ZM141.116 115.118H143.993V117.221H141.116C141.235 116.908 141.295 116.55 141.295 116.177C141.295 115.804 141.235 115.446 141.116 115.118Z" fill="#111111"/>
<path d="M155.683 112.3V119.875H156.802V116.595H158.755V115.64H156.802V112.3H155.683ZM146.737 114.567H154.446V113.657H151.151V112.166H150.032V113.657H146.737V114.567ZM147.483 117.474C147.483 118.876 148.72 119.771 150.584 119.771C152.448 119.771 153.7 118.876 153.7 117.474C153.7 116.088 152.448 115.193 150.584 115.193C148.72 115.193 147.483 116.088 147.483 117.474ZM148.541 117.474C148.541 116.624 149.361 116.043 150.584 116.043C151.807 116.043 152.627 116.624 152.627 117.474C152.627 118.339 151.807 118.921 150.584 118.921C149.361 118.921 148.541 118.339 148.541 117.474ZM148.631 125.168H156.802V120.456H155.698V121.888H149.734V120.456H148.631V125.168ZM149.734 124.259V122.753H155.698V124.259H149.734Z" fill="#111111"/>
<path d="M168.522 112.3V125.347H169.625V112.3H168.522ZM159.814 121.962H160.887C162.945 121.962 165.003 121.798 167.284 121.336L167.135 120.382C164.943 120.844 162.9 120.993 160.932 120.993V113.583H159.814V121.962Z" fill="#111111"/>
<path d="M180.167 112.285V125.362H181.285V118.414H183.447V117.474H181.285V112.285H180.167ZM171.847 122.097H172.861C175.336 122.097 177.036 122.022 179.049 121.649L178.914 120.695C177.006 121.068 175.351 121.142 172.95 121.142V114.492H177.901V113.583H171.847V122.097Z" fill="#111111"/>
<path d="M185.982 113.493H184.625L184.819 121.679H185.803L185.982 113.493ZM184.566 123.692C184.566 124.124 184.834 124.452 185.326 124.452C185.803 124.452 186.057 124.124 186.057 123.692C186.057 123.289 185.803 122.961 185.326 122.961C184.834 122.961 184.566 123.289 184.566 123.692Z" fill="#111111"/>
<path d="M76.6706 82.0355C76.1725 82.0355 75.7811 81.9821 75.4965 81.8754C75.2118 81.7687 74.9895 81.6263 74.8294 81.4484C74.687 81.2528 74.5981 81.0393 74.5625 80.808C74.5269 80.5768 74.5091 80.3277 74.5091 80.0609V70.9883C74.5091 70.5436 74.5625 70.1878 74.6692 69.9209C74.7938 69.6541 74.9539 69.4584 75.1496 69.3339C75.363 69.1916 75.5943 69.1026 75.8433 69.067C76.1102 69.0315 76.3859 69.0137 76.6706 69.0137H91.8004C92.2452 69.0137 92.6009 69.067 92.8678 69.1738C93.1346 69.2627 93.3392 69.3872 93.4815 69.5474C93.6238 69.7075 93.7128 69.8942 93.7484 70.1077C93.8017 70.3212 93.8284 70.5436 93.8284 70.7748C93.8284 70.9705 93.8017 71.1662 93.7484 71.3619C93.7128 71.5576 93.6238 71.7443 93.4815 71.9222C93.3392 72.1001 93.1346 72.2424 92.8678 72.3492C92.6009 72.4559 92.2452 72.5093 91.8004 72.5093H78.832V73.7634H91.8004C92.2452 73.7634 92.6009 73.8168 92.8678 73.9235C93.1346 74.0125 93.3392 74.137 93.4815 74.2971C93.6238 74.4572 93.7128 74.644 93.7484 74.8575C93.8017 75.0532 93.8284 75.2666 93.8284 75.4979C93.8284 75.6936 93.8017 75.8893 93.7484 76.0849C93.7128 76.2806 93.6238 76.4674 93.4815 76.6453C93.3392 76.8054 93.1346 76.9388 92.8678 77.0456C92.6009 77.1523 92.2452 77.2057 91.8004 77.2057H78.832V78.5399H92.1473C92.592 78.5399 92.9478 78.6021 93.2147 78.7267C93.4815 78.8334 93.6861 78.9757 93.8284 79.1536C93.9707 79.3137 94.0597 79.5005 94.0952 79.714C94.1486 79.9275 94.1753 80.1231 94.1753 80.301C94.1753 80.5323 94.1486 80.7547 94.0952 80.9681C94.0597 81.1638 93.9707 81.3417 93.8284 81.5018C93.6861 81.6619 93.4815 81.7953 93.2147 81.9021C92.9478 81.991 92.592 82.0355 92.1473 82.0355H76.6706ZM72.5879 85.4777C72.5879 85.2109 72.6146 84.9707 72.6679 84.7573C72.7391 84.526 72.8636 84.3303 73.0415 84.1702C73.2194 84.0101 73.4685 83.8856 73.7887 83.7966C74.1089 83.7077 74.518 83.6632 75.0161 83.6632H93.5616C94.0597 83.6632 94.4688 83.7077 94.789 83.7966C95.1092 83.8856 95.3583 84.0101 95.5362 84.1702C95.7141 84.3303 95.8297 84.526 95.8831 84.7573C95.9542 84.9707 95.9898 85.2109 95.9898 85.4777C95.9898 85.6912 95.9542 85.9047 95.8831 86.1182C95.8297 86.3316 95.7141 86.5273 95.5362 86.7052C95.3583 86.8653 95.1092 86.9987 94.789 87.1055C94.4688 87.2122 94.0597 87.2656 93.5616 87.2656H86.4636V89.2936C86.4636 89.7561 86.4013 90.1386 86.2768 90.441C86.1523 90.7434 85.9922 90.9836 85.7965 91.1614C85.6008 91.3393 85.3696 91.4639 85.1027 91.535C84.8537 91.6062 84.5868 91.6418 84.3022 91.6418C84.0176 91.6418 83.7418 91.6062 83.475 91.535C83.2259 91.4639 82.9947 91.3393 82.7812 91.1614C82.5855 90.9836 82.4254 90.7434 82.3009 90.441C82.1942 90.1386 82.1408 89.7561 82.1408 89.2936V87.2656H75.0161C74.518 87.2656 74.1089 87.2122 73.7887 87.1055C73.4685 86.9987 73.2194 86.8653 73.0415 86.7052C72.8636 86.5273 72.7391 86.3316 72.6679 86.1182C72.6146 85.9047 72.5879 85.6912 72.5879 85.4777Z" fill="#FF8F27"/>
<path d="M100.419 78.0593C99.9205 78.0593 99.5291 78.0059 99.2445 77.8992C98.9599 77.7925 98.7375 77.6501 98.5774 77.4722C98.4351 77.2766 98.3461 77.0631 98.3106 76.8318C98.275 76.5828 98.2572 76.3248 98.2572 76.058V69.7339C98.2572 68.8444 98.4707 68.2396 98.8976 67.9194C99.3423 67.5814 99.8493 67.4124 100.419 67.4124H115.548C115.993 67.4124 116.349 67.4657 116.616 67.5725C116.883 67.6792 117.087 67.8215 117.23 67.9994C117.372 68.1773 117.461 68.3819 117.496 68.6131C117.55 68.8266 117.576 69.049 117.576 69.2802C117.576 69.4759 117.55 69.6805 117.496 69.894C117.461 70.1074 117.372 70.3031 117.23 70.481C117.087 70.6589 116.883 70.8101 116.616 70.9347C116.349 71.0592 115.993 71.1214 115.548 71.1214H102.58V74.3502H115.815C116.26 74.3502 116.616 74.4125 116.883 74.537C117.15 74.6615 117.354 74.8127 117.496 74.9906C117.639 75.1685 117.728 75.3731 117.763 75.6044C117.817 75.8178 117.843 76.0135 117.843 76.1914C117.843 76.4227 117.817 76.6539 117.763 76.8852C117.728 77.0987 117.639 77.2944 117.496 77.4722C117.354 77.6501 117.15 77.7925 116.883 77.8992C116.616 78.0059 116.26 78.0593 115.815 78.0593H100.419ZM96.3359 82.4622C96.3359 82.1953 96.3626 81.9552 96.416 81.7417C96.4871 81.5104 96.6117 81.3148 96.7896 81.1546C96.9675 80.9768 97.2165 80.8433 97.5367 80.7544C97.8569 80.6477 98.2661 80.5943 98.7642 80.5943H117.31C117.808 80.5943 118.217 80.6477 118.537 80.7544C118.857 80.8433 119.106 80.9768 119.284 81.1546C119.462 81.3148 119.578 81.5104 119.631 81.7417C119.702 81.9552 119.738 82.1953 119.738 82.4622C119.738 82.6756 119.702 82.898 119.631 83.1293C119.578 83.3427 119.462 83.5384 119.284 83.7163C119.106 83.8764 118.857 84.0098 118.537 84.1166C118.217 84.2233 117.808 84.2767 117.31 84.2767H110.212V87.6922C110.212 88.1548 110.149 88.5372 110.025 88.8397C109.9 89.1421 109.74 89.3822 109.545 89.5601C109.349 89.738 109.118 89.8626 108.851 89.9337C108.602 90.0049 108.335 90.0404 108.05 90.0404C107.766 90.0404 107.49 90.0049 107.223 89.9337C106.974 89.8626 106.743 89.738 106.529 89.5601C106.334 89.3822 106.173 89.1421 106.049 88.8397C105.942 88.5372 105.889 88.1548 105.889 87.6922V84.2767H98.7642C98.2661 84.2767 97.8569 84.2233 97.5367 84.1166C97.2165 84.0098 96.9675 83.8764 96.7896 83.7163C96.6117 83.5384 96.4871 83.3427 96.416 83.1293C96.3626 82.898 96.3359 82.6756 96.3359 82.4622Z" fill="#FF8F27"/>
<path d="M124.168 82.0355C123.67 82.0355 123.278 81.9821 122.994 81.8754C122.709 81.7687 122.487 81.6263 122.326 81.4484C122.184 81.2528 122.095 81.0393 122.06 80.808C122.024 80.5768 122.006 80.3277 122.006 80.0609V70.9883C122.006 70.5436 122.06 70.1878 122.166 69.9209C122.291 69.6541 122.451 69.4584 122.647 69.3339C122.86 69.1916 123.091 69.1026 123.34 69.067C123.607 69.0315 123.883 69.0137 124.168 69.0137H139.297C139.742 69.0137 140.098 69.067 140.365 69.1738C140.632 69.2627 140.836 69.3872 140.979 69.5474C141.121 69.7075 141.21 69.8942 141.245 70.1077C141.299 70.3212 141.325 70.5436 141.325 70.7748C141.325 70.9705 141.299 71.1662 141.245 71.3619C141.21 71.5576 141.121 71.7443 140.979 71.9222C140.836 72.1001 140.632 72.2424 140.365 72.3492C140.098 72.4559 139.742 72.5093 139.297 72.5093H126.329V73.7634H139.297C139.742 73.7634 140.098 73.8168 140.365 73.9235C140.632 74.0125 140.836 74.137 140.979 74.2971C141.121 74.4572 141.21 74.644 141.245 74.8575C141.299 75.0532 141.325 75.2666 141.325 75.4979C141.325 75.6936 141.299 75.8893 141.245 76.0849C141.21 76.2806 141.121 76.4674 140.979 76.6453C140.836 76.8054 140.632 76.9388 140.365 77.0456C140.098 77.1523 139.742 77.2057 139.297 77.2057H126.329V78.5399H139.644C140.089 78.5399 140.445 78.6021 140.712 78.7267C140.979 78.8334 141.183 78.9757 141.325 79.1536C141.468 79.3137 141.557 79.5005 141.592 79.714C141.646 79.9275 141.672 80.1231 141.672 80.301C141.672 80.5323 141.646 80.7547 141.592 80.9681C141.557 81.1638 141.468 81.3417 141.325 81.5018C141.183 81.6619 140.979 81.7953 140.712 81.9021C140.445 81.991 140.089 82.0355 139.644 82.0355H124.168ZM120.085 85.4777C120.085 85.2109 120.112 84.9707 120.165 84.7573C120.236 84.526 120.361 84.3303 120.539 84.1702C120.716 84.0101 120.966 83.8856 121.286 83.7966C121.606 83.7077 122.015 83.6632 122.513 83.6632H141.059C141.557 83.6632 141.966 83.7077 142.286 83.7966C142.606 83.8856 142.855 84.0101 143.033 84.1702C143.211 84.3303 143.327 84.526 143.38 84.7573C143.451 84.9707 143.487 85.2109 143.487 85.4777C143.487 85.6912 143.451 85.9047 143.38 86.1182C143.327 86.3316 143.211 86.5273 143.033 86.7052C142.855 86.8653 142.606 86.9987 142.286 87.1055C141.966 87.2122 141.557 87.2656 141.059 87.2656H133.961V89.2936C133.961 89.7561 133.898 90.1386 133.774 90.441C133.649 90.7434 133.489 90.9836 133.294 91.1614C133.098 91.3393 132.867 91.4639 132.6 91.535C132.351 91.6062 132.084 91.6418 131.799 91.6418C131.515 91.6418 131.239 91.6062 130.972 91.535C130.723 91.4639 130.492 91.3393 130.278 91.1614C130.083 90.9836 129.922 90.7434 129.798 90.441C129.691 90.1386 129.638 89.7561 129.638 89.2936V87.2656H122.513C122.015 87.2656 121.606 87.2122 121.286 87.1055C120.966 86.9987 120.716 86.8653 120.539 86.7052C120.361 86.5273 120.236 86.3316 120.165 86.1182C120.112 85.9047 120.085 85.6912 120.085 85.4777Z" fill="#FF8F27"/>
<path d="M147.918 78.0593C147.42 78.0593 147.028 78.0059 146.744 77.8992C146.459 77.7925 146.237 77.6501 146.076 77.4722C145.934 77.2766 145.845 77.0631 145.81 76.8318C145.774 76.5828 145.756 76.3248 145.756 76.058V69.7339C145.756 68.8444 145.97 68.2396 146.397 67.9194C146.841 67.5814 147.348 67.4124 147.918 67.4124H163.047C163.492 67.4124 163.848 67.4657 164.115 67.5725C164.382 67.6792 164.586 67.8215 164.729 67.9994C164.871 68.1773 164.96 68.3819 164.995 68.6131C165.049 68.8266 165.075 69.049 165.075 69.2802C165.075 69.4759 165.049 69.6805 164.995 69.894C164.96 70.1074 164.871 70.3031 164.729 70.481C164.586 70.6589 164.382 70.8101 164.115 70.9347C163.848 71.0592 163.492 71.1214 163.047 71.1214H150.079V74.3502H163.314C163.759 74.3502 164.115 74.4125 164.382 74.537C164.649 74.6615 164.853 74.8127 164.995 74.9906C165.138 75.1685 165.227 75.3731 165.262 75.6044C165.316 75.8178 165.342 76.0135 165.342 76.1914C165.342 76.4227 165.316 76.6539 165.262 76.8852C165.227 77.0987 165.138 77.2944 164.995 77.4722C164.853 77.6501 164.649 77.7925 164.382 77.8992C164.115 78.0059 163.759 78.0593 163.314 78.0593H147.918ZM143.835 82.4622C143.835 82.1953 143.862 81.9552 143.915 81.7417C143.986 81.5104 144.111 81.3148 144.289 81.1546C144.466 80.9768 144.716 80.8433 145.036 80.7544C145.356 80.6477 145.765 80.5943 146.263 80.5943H164.809C165.307 80.5943 165.716 80.6477 166.036 80.7544C166.356 80.8433 166.605 80.9768 166.783 81.1546C166.961 81.3148 167.077 81.5104 167.13 81.7417C167.201 81.9552 167.237 82.1953 167.237 82.4622C167.237 82.6756 167.201 82.898 167.13 83.1293C167.077 83.3427 166.961 83.5384 166.783 83.7163C166.605 83.8764 166.356 84.0098 166.036 84.1166C165.716 84.2233 165.307 84.2767 164.809 84.2767H157.711V87.6922C157.711 88.1548 157.648 88.5372 157.524 88.8397C157.399 89.1421 157.239 89.3822 157.044 89.5601C156.848 89.738 156.617 89.8626 156.35 89.9337C156.101 90.0049 155.834 90.0404 155.549 90.0404C155.265 90.0404 154.989 90.0049 154.722 89.9337C154.473 89.8626 154.242 89.738 154.028 89.5601C153.833 89.3822 153.672 89.1421 153.548 88.8397C153.441 88.5372 153.388 88.1548 153.388 87.6922V84.2767H146.263C145.765 84.2767 145.356 84.2233 145.036 84.1166C144.716 84.0098 144.466 83.8764 144.289 83.7163C144.111 83.5384 143.986 83.3427 143.915 83.1293C143.862 82.898 143.835 82.6756 143.835 82.4622Z" fill="#FF8F27"/>
<defs>
<filter id="filter0_f_1116_22039" x="152.142" y="2.31299" width="35.958" height="35.9575" filterUnits="userSpaceOnUse" color-interpolation-filters="sRGB">
<feFlood flood-opacity="0" result="BackgroundImageFix"/>
<feBlend mode="normal" in="SourceGraphic" in2="BackgroundImageFix" result="shape"/>
<feGaussianBlur stdDeviation="2" result="effect1_foregroundBlur_1116_22039"/>
</filter>
<filter id="filter1_f_1116_22039" x="114.265" y="2.31299" width="35.958" height="35.9575" filterUnits="userSpaceOnUse" color-interpolation-filters="sRGB">
<feFlood flood-opacity="0" result="BackgroundImageFix"/>
<feBlend mode="normal" in="SourceGraphic" in2="BackgroundImageFix" result="shape"/>
<feGaussianBlur stdDeviation="2" result="effect1_foregroundBlur_1116_22039"/>
</filter>
<filter id="filter2_f_1116_22039" x="76.3857" y="2.31299" width="35.958" height="35.9575" filterUnits="userSpaceOnUse" color-interpolation-filters="sRGB">
<feFlood flood-opacity="0" result="BackgroundImageFix"/>
<feBlend mode="normal" in="SourceGraphic" in2="BackgroundImageFix" result="shape"/>
<feGaussianBlur stdDeviation="2" result="effect1_foregroundBlur_1116_22039"/>
</filter>
<filter id="filter3_d_1116_22039" x="0" y="15.6843" width="255" height="184" filterUnits="userSpaceOnUse" color-interpolation-filters="sRGB">
<feFlood flood-opacity="0" result="BackgroundImageFix"/>
<feColorMatrix in="SourceAlpha" type="matrix" values="0 0 0 0 0 0 0 0 0 0 0 0 0 0 0 0 0 0 127 0" result="hardAlpha"/>
<feOffset dy="14"/>
<feGaussianBlur stdDeviation="7.5"/>
<feComposite in2="hardAlpha" operator="out"/>
<feColorMatrix type="matrix" values="0 0 0 0 1 0 0 0 0 0.453333 0 0 0 0 0.145833 0 0 0 0.35 0"/>
<feBlend mode="normal" in2="BackgroundImageFix" result="effect1_dropShadow_1116_22039"/>
<feBlend mode="normal" in="SourceGraphic" in2="effect1_dropShadow_1116_22039" result="shape"/>
</filter>
<linearGradient id="paint0_linear_1116_22039" x1="160.42" y1="25.7029" x2="176.653" y2="13.9788" gradientUnits="userSpaceOnUse">
<stop offset="0.354167" stop-color="#E1E1E1"/>
<stop offset="1" stop-color="#C89B82"/>
</linearGradient>
<linearGradient id="paint1_linear_1116_22039" x1="123.445" y1="25.7029" x2="139.679" y2="13.9788" gradientUnits="userSpaceOnUse">
<stop offset="0.354167" stop-color="#E1E1E1"/>
<stop offset="1" stop-color="#C89B82"/>
</linearGradient>
<linearGradient id="paint2_linear_1116_22039" x1="86.4695" y1="25.7029" x2="102.703" y2="13.9788" gradientUnits="userSpaceOnUse">
<stop offset="0.354167" stop-color="#E1E1E1"/>
<stop offset="1" stop-color="#C89B82"/>
</linearGradient>
</defs>
</svg>
