<svg width="21" height="20" viewBox="0 0 21 20" fill="none" xmlns="http://www.w3.org/2000/svg">
<path d="M10.512 1.25C5.67993 1.25 1.76196 5.16797 1.76196 10C1.76196 14.832 5.67993 18.75 10.512 18.75C15.344 18.75 19.262 14.832 19.262 10C19.262 5.16797 15.344 1.25 10.512 1.25ZM10.512 17.2656C6.50024 17.2656 3.24634 14.0117 3.24634 10C3.24634 5.98828 6.50024 2.73438 10.512 2.73438C14.5237 2.73438 17.7776 5.98828 17.7776 10C17.7776 14.0117 14.5237 17.2656 10.512 17.2656Z" fill="#9F9E9E"/>
<path d="M9.57446 6.5625C9.57446 6.81114 9.67323 7.0496 9.84905 7.22541C10.0249 7.40123 10.2633 7.5 10.512 7.5C10.7606 7.5 10.9991 7.40123 11.1749 7.22541C11.3507 7.0496 11.4495 6.81114 11.4495 6.5625C11.4495 6.31386 11.3507 6.0754 11.1749 5.89959C10.9991 5.72377 10.7606 5.625 10.512 5.625C10.2633 5.625 10.0249 5.72377 9.84905 5.89959C9.67323 6.0754 9.57446 6.31386 9.57446 6.5625V6.5625ZM10.9807 8.75H10.0432C9.95728 8.75 9.88696 8.82031 9.88696 8.90625V14.2188C9.88696 14.3047 9.95728 14.375 10.0432 14.375H10.9807C11.0667 14.375 11.137 14.3047 11.137 14.2188V8.90625C11.137 8.82031 11.0667 8.75 10.9807 8.75Z" fill="#9F9E9E"/>
</svg>
