<svg width="15" height="15" viewBox="0 0 15 15" fill="none" xmlns="http://www.w3.org/2000/svg">
<path fill-rule="evenodd" clip-rule="evenodd" d="M11.7172 1.36364H2.72727C1.97416 1.36364 1.36364 1.97416 1.36364 2.72727V12.2727C1.36364 13.0258 1.97416 13.6364 2.72727 13.6364H11.7172C12.4703 13.6364 13.0808 13.0258 13.0808 12.2727V2.72727C13.0808 1.97416 12.4703 1.36364 11.7172 1.36364ZM2.72727 0C1.22104 0 0 1.22104 0 2.72727V12.2727C0 13.779 1.22104 15 2.72727 15H11.7172C13.2234 15 14.4444 13.779 14.4444 12.2727V2.72727C14.4444 1.22104 13.2234 0 11.7172 0H2.72727Z" fill="#FF7B00"/>
<path fill-rule="evenodd" clip-rule="evenodd" d="M4.87305 4.99969C4.87305 4.62313 5.17831 4.31787 5.55487 4.31787H11.1104C11.487 4.31787 11.7922 4.62313 11.7922 4.99969C11.7922 5.37625 11.487 5.68151 11.1104 5.68151H5.55487C5.17831 5.68151 4.87305 5.37625 4.87305 4.99969Z" fill="#FF7B00"/>
<path fill-rule="evenodd" clip-rule="evenodd" d="M4.87305 7.77777C4.87305 7.40121 5.17831 7.09595 5.55487 7.09595H11.1104C11.487 7.09595 11.7922 7.40121 11.7922 7.77777C11.7922 8.15432 11.487 8.45958 11.1104 8.45958H5.55487C5.17831 8.45958 4.87305 8.15432 4.87305 7.77777Z" fill="#FF7B00"/>
<path fill-rule="evenodd" clip-rule="evenodd" d="M4.87305 10.5554C4.87305 10.1788 5.17831 9.87354 5.55487 9.87354H11.1104C11.487 9.87354 11.7922 10.1788 11.7922 10.5554C11.7922 10.9319 11.487 11.2372 11.1104 11.2372H5.55487C5.17831 11.2372 4.87305 10.9319 4.87305 10.5554Z" fill="#FF7B00"/>
<path d="M3.88845 4.99989C3.88845 5.30672 3.63972 5.55545 3.3329 5.55545C3.02607 5.55545 2.77734 5.30672 2.77734 4.99989C2.77734 4.69307 3.02607 4.44434 3.3329 4.44434C3.63972 4.44434 3.88845 4.69307 3.88845 4.99989Z" fill="#FF7B00"/>
<path d="M3.88845 7.77748C3.88845 8.0843 3.63972 8.33303 3.3329 8.33303C3.02607 8.33303 2.77734 8.0843 2.77734 7.77748C2.77734 7.47065 3.02607 7.22192 3.3329 7.22192C3.63972 7.22192 3.88845 7.47065 3.88845 7.77748Z" fill="#FF7B00"/>
<path d="M3.88845 10.5556C3.88845 10.8624 3.63972 11.1111 3.3329 11.1111C3.02607 11.1111 2.77734 10.8624 2.77734 10.5556C2.77734 10.2487 3.02607 10 3.3329 10C3.63972 10 3.88845 10.2487 3.88845 10.5556Z" fill="#FF7B00"/>
</svg>
