<svg width="84" height="64" viewBox="0 0 84 64" fill="none" xmlns="http://www.w3.org/2000/svg">
<path fill-rule="evenodd" clip-rule="evenodd" d="M41.6834 0.982422C42.3952 0.982422 42.9722 1.55945 42.9722 2.27125V13.8707C42.9722 14.5825 42.3952 15.1595 41.6834 15.1595C40.9716 15.1595 40.3945 14.5825 40.3945 13.8707V2.27125C40.3945 1.55945 40.9716 0.982422 41.6834 0.982422Z" fill="#FF8F27"/>
<path d="M40.4316 1.95731C40.4316 0.876319 41.2185 0 42.1892 0H50.9772C51.9479 0 52.7347 0.876319 52.7347 1.95731V5.87194C52.7347 6.95293 51.9479 7.82925 50.9772 7.82925H42.1892C41.2185 7.82925 40.4316 6.95293 40.4316 5.87194V1.95731Z" fill="#FF8F27"/>
<path d="M2.08887 36.6924H80.8609V61C80.8609 62.6569 79.5178 64 77.8609 64H5.08887C3.43202 64 2.08887 62.6569 2.08887 61V36.6924Z" fill="#FFDBB9"/>
<path d="M3.52536 31.7233C3.67559 31.5426 3.88007 31.4409 4.09338 31.4409H79.9072C80.1205 31.4409 80.325 31.5426 80.4752 31.7233L83.2532 35.0651C83.7542 35.6677 83.3965 36.6924 82.6852 36.6924H1.31538C0.604108 36.6924 0.246431 35.6677 0.747356 35.0651L3.52536 31.7233Z" fill="#FFA652"/>
<path d="M25.1953 20.3452L41.4749 12.5354L57.7544 20.3452V63.9998H25.1953V20.3452Z" fill="#FFE9D5"/>
<path fill-rule="evenodd" clip-rule="evenodd" d="M39.6837 11.1088C41.0866 10.2105 42.9144 10.2105 44.3173 11.1088L61.1293 21.8728C61.9823 22.419 62.2128 23.5259 61.6441 24.3451C61.0755 25.1644 59.9229 25.3857 59.0699 24.8396L42.2579 14.0755C42.1021 13.9757 41.899 13.9757 41.7431 14.0755L24.9311 24.8396C24.0781 25.3857 22.9256 25.1644 22.3569 24.3451C21.7882 23.5259 22.0187 22.419 22.8717 21.8728L39.6837 11.1088Z" fill="#FFA652"/>
<path d="M35.1729 56.7258C35.1729 54.3625 37.3561 52.4468 40.0492 52.4468H43.9503C46.6435 52.4468 48.8267 54.3625 48.8267 56.7258V64H35.1729V56.7258Z" fill="#FF8F27"/>
<path fill-rule="evenodd" clip-rule="evenodd" d="M41.4157 29.9229V37.3121C41.4157 37.7948 41.8069 38.1861 42.2896 38.1861C42.7723 38.1861 43.1636 37.7948 43.1636 37.3121V28.2349C43.1636 27.3006 42.0339 26.8327 41.3732 27.4934L37.672 31.1946C37.3307 31.5359 37.3307 32.0893 37.672 32.4306C38.0133 32.7719 38.5667 32.7719 38.908 32.4306L41.4157 29.9229Z" fill="#FF8F27"/>
</svg>
