<svg width="310" height="80" viewBox="0 0 310 80" fill="none" xmlns="http://www.w3.org/2000/svg">
<g filter="url(#filter0_d_261_11077)">
<rect x="15" y="11" width="280" height="50" rx="16" fill="#FFE768" shape-rendering="crispEdges"/>
<path fill-rule="evenodd" clip-rule="evenodd" d="M100 42.3376C105.523 42.3376 110 39.0145 110 34.9154C110 30.8162 105.523 27.4932 100 27.4932C94.4772 27.4932 90 30.8162 90 34.9154C90 36.9203 91.0711 38.7396 92.8117 40.0752L91.7453 43.1764C91.4264 44.1039 92.4944 44.8884 93.2841 44.3067L96.4097 42.0042C96.4599 41.9673 96.5055 41.9267 96.5465 41.8831C97.6229 42.1771 98.7862 42.3376 100 42.3376Z" fill="#111111"/>
<path d="M133.099 30.464H126.619V31.84H131.403C131.339 32.608 131.227 33.328 131.035 34L125.899 34.32L126.123 35.808L130.523 35.376C129.707 37.088 128.235 38.528 125.787 39.76L126.699 41.072C131.915 38.448 133.099 34.752 133.099 30.464ZM135.083 43.264H136.811V36.048H138.923V34.624H136.811V29.04H135.083V43.264ZM147.083 30.464H140.603V31.84H145.387C145.323 32.608 145.211 33.328 145.019 34L139.883 34.32L140.107 35.808L144.507 35.376C143.691 37.088 142.219 38.528 139.771 39.76L140.683 41.072C145.899 38.448 147.083 34.752 147.083 30.464ZM149.067 43.264H150.795V36.048H152.907V34.624H150.795V29.04H149.067V43.264ZM160.156 29.856C157.132 29.856 154.908 31.376 154.908 33.696C154.908 35.808 156.716 37.232 159.292 37.488V40.144H153.724V41.536H166.604V40.144H161.004V37.488C163.58 37.232 165.404 35.808 165.404 33.696C165.404 31.376 163.18 29.856 160.156 29.856ZM156.588 33.696C156.588 32.176 158.076 31.216 160.156 31.216C162.236 31.216 163.724 32.176 163.724 33.696C163.724 35.216 162.236 36.176 160.156 36.176C158.076 36.176 156.588 35.216 156.588 33.696ZM167.708 36.672V38.032H180.556V36.672H174.988V35.44H179.148V34.112H171.052V33.024H178.7V31.744H171.052V30.736H179.036V29.408H169.34V35.44H173.26V36.672H167.708ZM169.132 40.416H177.228V43.28H178.94V39.056H169.132V40.416ZM185.38 40.224V41.616H198.26V40.224H192.66V37.856H197.076V36.48H188.628V34.576H196.756V30.016H186.9V31.392H195.06V33.216H186.916V37.856H190.948V40.224H185.38ZM200.724 30.432V31.808H208.884V32.016C208.884 33.872 208.884 35.936 208.34 38.736L210.068 38.896C210.596 35.904 210.596 33.92 210.596 32.016V30.432H200.724ZM199.364 41.328H212.228V39.92H199.364V41.328ZM223.365 29.072V39.344H225.093V29.072H223.365ZM213.605 33.568C213.605 35.632 215.253 37.12 217.397 37.12C219.557 37.12 221.189 35.632 221.189 33.568C221.189 31.472 219.557 30 217.397 30C215.253 30 213.605 31.472 213.605 33.568ZM215.285 33.568C215.285 32.288 216.197 31.488 217.397 31.488C218.597 31.488 219.525 32.288 219.525 33.568C219.525 34.816 218.597 35.616 217.397 35.616C216.197 35.616 215.285 34.816 215.285 33.568ZM215.781 43.008H225.493V41.616H217.493V38.32H215.781V43.008Z" fill="#111111"/>
</g>
<defs>
<filter id="filter0_d_261_11077" x="0" y="0" width="310" height="80" filterUnits="userSpaceOnUse" color-interpolation-filters="sRGB">
<feFlood flood-opacity="0" result="BackgroundImageFix"/>
<feColorMatrix in="SourceAlpha" type="matrix" values="0 0 0 0 0 0 0 0 0 0 0 0 0 0 0 0 0 0 127 0" result="hardAlpha"/>
<feOffset dy="4"/>
<feGaussianBlur stdDeviation="7.5"/>
<feComposite in2="hardAlpha" operator="out"/>
<feColorMatrix type="matrix" values="0 0 0 0 0 0 0 0 0 0 0 0 0 0 0 0 0 0 0.1 0"/>
<feBlend mode="normal" in2="BackgroundImageFix" result="effect1_dropShadow_261_11077"/>
<feBlend mode="normal" in="SourceGraphic" in2="effect1_dropShadow_261_11077" result="shape"/>
</filter>
</defs>
</svg>
