<svg width="157" height="40" viewBox="0 0 157 40" fill="none" xmlns="http://www.w3.org/2000/svg">
<path d="M6.74004 24.1412C5.91773 24.1412 5.27162 24.0531 4.80173 23.8769C4.33183 23.7007 3.96473 23.4657 3.70041 23.172C3.46547 22.849 3.31863 22.4966 3.25989 22.1148C3.20115 21.733 3.17178 21.3218 3.17178 20.8813V5.90344C3.17178 5.16924 3.25989 4.58187 3.4361 4.14134C3.64168 3.70082 3.90599 3.37776 4.22904 3.17219C4.58147 2.93724 4.96325 2.7904 5.37441 2.73166C5.81494 2.67292 6.27015 2.64355 6.74004 2.64355H31.7178C32.4521 2.64355 33.0394 2.73166 33.4799 2.90787C33.9205 3.05471 34.2582 3.26029 34.4932 3.52461C34.7281 3.78892 34.8749 4.09729 34.9337 4.44971C35.0218 4.80213 35.0658 5.16924 35.0658 5.55103C35.0658 5.87408 35.0218 6.19713 34.9337 6.52018C34.8749 6.84323 34.7281 7.1516 34.4932 7.44528C34.2582 7.73897 33.9205 7.97392 33.4799 8.15012C33.0394 8.32634 32.4521 8.41444 31.7178 8.41444H10.3083V10.4849H31.7178C32.4521 10.4849 33.0394 10.573 33.4799 10.7492C33.9205 10.8961 34.2582 11.1016 34.4932 11.366C34.7281 11.6303 34.8749 11.9386 34.9337 12.2911C35.0218 12.6141 35.0658 12.9665 35.0658 13.3483C35.0658 13.6714 35.0218 13.9944 34.9337 14.3175C34.8749 14.6405 34.7281 14.9489 34.4932 15.2426C34.2582 15.5069 33.9205 15.7272 33.4799 15.9034C33.0394 16.0796 32.4521 16.1677 31.7178 16.1677H10.3083V18.3703H32.2905C33.0247 18.3703 33.6121 18.4731 34.0526 18.6787C34.4932 18.8549 34.8309 19.0898 35.0658 19.3835C35.3008 19.6478 35.4476 19.9562 35.5064 20.3086C35.5945 20.6611 35.6385 20.9841 35.6385 21.2778C35.6385 21.6596 35.5945 22.0267 35.5064 22.3791C35.4476 22.7022 35.3008 22.9958 35.0658 23.2602C34.8309 23.5245 34.4932 23.7447 34.0526 23.9209C33.6121 24.0678 33.0247 24.1412 32.2905 24.1412H6.74004ZM0 29.824C0 29.3835 0.0440526 28.987 0.132158 28.6346C0.249631 28.2528 0.45521 27.9297 0.748893 27.6654C1.04258 27.4011 1.45373 27.1955 1.98237 27.0487C2.511 26.9018 3.18647 26.8284 4.00878 26.8284H34.6253C35.4476 26.8284 36.1231 26.9018 36.6517 27.0487C37.1804 27.1955 37.5915 27.4011 37.8852 27.6654C38.1789 27.9297 38.3698 28.2528 38.4579 28.6346C38.5754 28.987 38.6341 29.3835 38.6341 29.824C38.6341 30.1764 38.5754 30.5288 38.4579 30.8812C38.3698 31.2337 38.1789 31.5567 37.8852 31.8504C37.5915 32.1147 37.1804 32.335 36.6517 32.5112C36.1231 32.6874 35.4476 32.7755 34.6253 32.7755H22.9073V36.1235C22.9073 36.8871 22.8045 37.5185 22.599 38.0178C22.3934 38.517 22.1291 38.9135 21.806 39.2072C21.483 39.5009 21.1012 39.7064 20.6607 39.8239C20.2495 39.9414 19.809 40.0001 19.3391 40.0001C18.8692 40.0001 18.414 39.9414 17.9734 39.8239C17.5623 39.7064 17.1805 39.5009 16.8281 39.2072C16.505 38.9135 16.2407 38.517 16.0351 38.0178C15.8589 37.5185 15.7708 36.8871 15.7708 36.1235V32.7755H4.00878C3.18647 32.7755 2.511 32.6874 1.98237 32.5112C1.45373 32.335 1.04258 32.1147 0.748893 31.8504C0.45521 31.5567 0.249631 31.2337 0.132158 30.8812C0.0440526 30.5288 0 30.1764 0 29.824Z" fill="#FF8F27"/>
<path d="M45.9468 17.577C45.1245 17.577 44.4784 17.4889 44.0085 17.3127C43.5386 17.1364 43.1715 16.9015 42.9072 16.6078C42.6723 16.2848 42.5254 15.9323 42.4667 15.5506C42.4079 15.1394 42.3786 14.7136 42.3786 14.273V3.83257C42.3786 2.36415 42.731 1.36563 43.4358 0.836998C44.17 0.278999 45.007 0 45.9468 0H70.9246C71.6588 0 72.2462 0.0881057 72.6867 0.264317C73.1273 0.440527 73.465 0.675474 73.6999 0.969157C73.9349 1.26284 74.0817 1.60058 74.1405 1.98237C74.2286 2.33479 74.2726 2.70189 74.2726 3.08368C74.2726 3.40673 74.2286 3.74447 74.1405 4.09689C74.0817 4.44931 73.9349 4.77236 73.6999 5.06604C73.465 5.35973 73.1273 5.60936 72.6867 5.81494C72.2462 6.02052 71.6588 6.12331 70.9246 6.12331H49.5151V11.4537H71.3652C72.0994 11.4537 72.6867 11.5565 73.1273 11.762C73.5678 11.9676 73.9055 12.2172 74.1405 12.5109C74.3754 12.8046 74.5223 13.1423 74.581 13.5241C74.6691 13.8766 74.7132 14.1996 74.7132 14.4933C74.7132 14.8751 74.6691 15.2569 74.581 15.6387C74.5223 15.9911 74.3754 16.3141 74.1405 16.6078C73.9055 16.9015 73.5678 17.1364 73.1273 17.3127C72.6867 17.4889 72.0994 17.577 71.3652 17.577H45.9468ZM39.2068 24.8456C39.2068 24.4051 39.2508 24.0086 39.3389 23.6562C39.4564 23.2744 39.662 22.9514 39.9557 22.6871C40.2494 22.3934 40.6605 22.1731 41.1892 22.0263C41.7178 21.8501 42.3933 21.762 43.2156 21.762H73.8321C74.6544 21.762 75.3299 21.8501 75.8585 22.0263C76.3871 22.1731 76.7983 22.3934 77.092 22.6871C77.3857 22.9514 77.5766 23.2744 77.6647 23.6562C77.7821 24.0086 77.8409 24.4051 77.8409 24.8456C77.8409 25.1981 77.7821 25.5652 77.6647 25.947C77.5766 26.2994 77.3857 26.6224 77.092 26.9161C76.7983 27.1804 76.3871 27.4007 75.8585 27.5769C75.3299 27.7531 74.6544 27.8412 73.8321 27.8412H62.1141V33.4799C62.1141 34.2435 62.0113 34.8749 61.8057 35.3742C61.6002 35.8735 61.3359 36.2699 61.0128 36.5636C60.6898 36.8573 60.308 37.0629 59.8674 37.1804C59.4563 37.2978 59.0158 37.3566 58.5459 37.3566C58.076 37.3566 57.6208 37.2978 57.1802 37.1804C56.7691 37.0629 56.3873 36.8573 56.0349 36.5636C55.7118 36.2699 55.4475 35.8735 55.2419 35.3742C55.0657 34.8749 54.9776 34.2435 54.9776 33.4799V27.8412H43.2156C42.3933 27.8412 41.7178 27.7531 41.1892 27.5769C40.6605 27.4007 40.2494 27.1804 39.9557 26.9161C39.662 26.6224 39.4564 26.2994 39.3389 25.947C39.2508 25.5652 39.2068 25.1981 39.2068 24.8456Z" fill="#FF8F27"/>
<path d="M85.1534 24.1412C84.3311 24.1412 83.685 24.0531 83.2151 23.8769C82.7452 23.7007 82.3781 23.4657 82.1137 23.172C81.8788 22.849 81.732 22.4966 81.6732 22.1148C81.6145 21.733 81.5851 21.3218 81.5851 20.8813V5.90344C81.5851 5.16924 81.6732 4.58187 81.8494 4.14134C82.055 3.70082 82.3193 3.37776 82.6424 3.17219C82.9948 2.93724 83.3766 2.7904 83.7877 2.73166C84.2283 2.67292 84.6835 2.64355 85.1534 2.64355H110.131C110.865 2.64355 111.453 2.73166 111.893 2.90787C112.334 3.05471 112.672 3.26029 112.906 3.52461C113.141 3.78892 113.288 4.09729 113.347 4.44971C113.435 4.80213 113.479 5.16924 113.479 5.55103C113.479 5.87408 113.435 6.19713 113.347 6.52018C113.288 6.84323 113.141 7.1516 112.906 7.44528C112.672 7.73897 112.334 7.97392 111.893 8.15012C111.453 8.32634 110.865 8.41444 110.131 8.41444H88.7216V10.4849H110.131C110.865 10.4849 111.453 10.573 111.893 10.7492C112.334 10.8961 112.672 11.1016 112.906 11.366C113.141 11.6303 113.288 11.9386 113.347 12.2911C113.435 12.6141 113.479 12.9665 113.479 13.3483C113.479 13.6714 113.435 13.9944 113.347 14.3175C113.288 14.6405 113.141 14.9489 112.906 15.2426C112.672 15.5069 112.334 15.7272 111.893 15.9034C111.453 16.0796 110.865 16.1677 110.131 16.1677H88.7216V18.3703H110.704C111.438 18.3703 112.025 18.4731 112.466 18.6787C112.906 18.8549 113.244 19.0898 113.479 19.3835C113.714 19.6478 113.861 19.9562 113.92 20.3086C114.008 20.6611 114.052 20.9841 114.052 21.2778C114.052 21.6596 114.008 22.0267 113.92 22.3791C113.861 22.7022 113.714 22.9958 113.479 23.2602C113.244 23.5245 112.906 23.7447 112.466 23.9209C112.025 24.0678 111.438 24.1412 110.704 24.1412H85.1534ZM78.4133 29.824C78.4133 29.3835 78.4574 28.987 78.5455 28.6346C78.663 28.2528 78.8685 27.9297 79.1622 27.6654C79.4559 27.4011 79.8671 27.1955 80.3957 27.0487C80.9243 26.9018 81.5998 26.8284 82.4221 26.8284H113.039C113.861 26.8284 114.536 26.9018 115.065 27.0487C115.594 27.1955 116.005 27.4011 116.299 27.6654C116.592 27.9297 116.783 28.2528 116.871 28.6346C116.989 28.987 117.047 29.3835 117.047 29.824C117.047 30.1764 116.989 30.5288 116.871 30.8812C116.783 31.2337 116.592 31.5567 116.299 31.8504C116.005 32.1147 115.594 32.335 115.065 32.5112C114.536 32.6874 113.861 32.7755 113.039 32.7755H101.321V36.1235C101.321 36.8871 101.218 37.5185 101.012 38.0178C100.807 38.517 100.542 38.9135 100.219 39.2072C99.8963 39.5009 99.5145 39.7064 99.074 39.8239C98.6628 39.9414 98.2223 40.0001 97.7524 40.0001C97.2825 40.0001 96.8273 39.9414 96.3868 39.8239C95.9756 39.7064 95.5938 39.5009 95.2414 39.2072C94.9184 38.9135 94.654 38.517 94.4485 38.0178C94.2723 37.5185 94.1841 36.8871 94.1841 36.1235V32.7755H82.4221C81.5998 32.7755 80.9243 32.6874 80.3957 32.5112C79.8671 32.335 79.4559 32.1147 79.1622 31.8504C78.8685 31.5567 78.663 31.2337 78.5455 30.8812C78.4574 30.5288 78.4133 30.1764 78.4133 29.824Z" fill="#FF8F27"/>
<path d="M124.361 17.577C123.538 17.577 122.892 17.4889 122.422 17.3127C121.952 17.1364 121.585 16.9015 121.321 16.6078C121.086 16.2848 120.939 15.9323 120.88 15.5506C120.822 15.1394 120.792 14.7136 120.792 14.273V3.83257C120.792 2.36415 121.145 1.36563 121.85 0.836998C122.584 0.278999 123.421 0 124.361 0H149.338C150.073 0 150.66 0.0881057 151.101 0.264317C151.541 0.440527 151.879 0.675474 152.114 0.969157C152.349 1.26284 152.496 1.60058 152.554 1.98237C152.642 2.33479 152.686 2.70189 152.686 3.08368C152.686 3.40673 152.642 3.74447 152.554 4.09689C152.496 4.44931 152.349 4.77236 152.114 5.06604C151.879 5.35973 151.541 5.60936 151.101 5.81494C150.66 6.02052 150.073 6.12331 149.338 6.12331H127.929V11.4537H149.779C150.513 11.4537 151.101 11.5565 151.541 11.762C151.982 11.9676 152.319 12.2172 152.554 12.5109C152.789 12.8046 152.936 13.1423 152.995 13.5241C153.083 13.8766 153.127 14.1996 153.127 14.4933C153.127 14.8751 153.083 15.2569 152.995 15.6387C152.936 15.9911 152.789 16.3141 152.554 16.6078C152.319 16.9015 151.982 17.1364 151.541 17.3127C151.101 17.4889 150.513 17.577 149.779 17.577H124.361ZM117.621 24.8456C117.621 24.4051 117.665 24.0086 117.753 23.6562C117.87 23.2744 118.076 22.9514 118.369 22.6871C118.663 22.3934 119.074 22.1731 119.603 22.0263C120.132 21.8501 120.807 21.762 121.629 21.762H152.246C153.068 21.762 153.744 21.8501 154.272 22.0263C154.801 22.1731 155.212 22.3934 155.506 22.6871C155.799 22.9514 155.99 23.2744 156.078 23.6562C156.196 24.0086 156.255 24.4051 156.255 24.8456C156.255 25.1981 156.196 25.5652 156.078 25.947C155.99 26.2994 155.799 26.6224 155.506 26.9161C155.212 27.1804 154.801 27.4007 154.272 27.5769C153.744 27.7531 153.068 27.8412 152.246 27.8412H140.528V33.4799C140.528 34.2435 140.425 34.8749 140.22 35.3742C140.014 35.8735 139.75 36.2699 139.427 36.5636C139.104 36.8573 138.722 37.0629 138.281 37.1804C137.87 37.2978 137.43 37.3566 136.96 37.3566C136.49 37.3566 136.035 37.2978 135.594 37.1804C135.183 37.0629 134.801 36.8573 134.449 36.5636C134.126 36.2699 133.861 35.8735 133.656 35.3742C133.48 34.8749 133.391 34.2435 133.391 33.4799V27.8412H121.629C120.807 27.8412 120.132 27.7531 119.603 27.5769C119.074 27.4007 118.663 27.1804 118.369 26.9161C118.076 26.6224 117.87 26.2994 117.753 25.947C117.665 25.5652 117.621 25.1981 117.621 24.8456Z" fill="#FF8F27"/>
</svg>
