<svg width="310" height="80" viewBox="0 0 310 80" fill="none" xmlns="http://www.w3.org/2000/svg">
<g filter="url(#filter0_d_261_11082)">
<rect x="15" y="11" width="280" height="50" rx="16" fill="white" shape-rendering="crispEdges"/>
<path d="M93 43V29H98.0072L102.319 35.3139V29H107V43H102.319L98.0072 36.3082V43H93Z" fill="#00BF19"/>
<path d="M130.355 30.496V39.792H131.315C133.075 39.792 134.643 39.728 136.419 39.344L136.195 37.904C134.723 38.208 133.443 38.288 132.051 38.32V30.496H130.355ZM134.307 35.072H137.267V42.592H138.883V29.344H137.267V33.664H134.307V35.072ZM140.291 43.28H141.923V29.056H140.291V43.28ZM153.732 29.04V43.312H155.46V29.04H153.732ZM144.18 35.104C144.18 38.192 145.716 40.16 147.86 40.16C150.004 40.16 151.54 38.192 151.54 35.104C151.54 32.032 150.004 30.08 147.86 30.08C145.716 30.08 144.18 32.032 144.18 35.104ZM145.844 35.104C145.844 32.928 146.66 31.648 147.86 31.648C149.06 31.648 149.892 32.928 149.892 35.104C149.892 37.312 149.06 38.592 147.86 38.592C146.66 38.592 145.844 37.312 145.844 35.104ZM167.828 29.04V34.176H164.964V30.176H163.268V33.712H159.972V30.176H158.244V39.856H164.964V35.568H167.828V43.312H169.556V29.04H167.828ZM159.972 38.464V35.072H163.268V38.464H159.972ZM175.388 40.224V41.616H188.268V40.224H182.668V37.856H187.084V36.48H178.636V34.576H186.764V30.016H176.908V31.392H185.068V33.216H176.924V37.856H180.956V40.224H175.388ZM190.732 30.432V31.808H198.892V32.016C198.892 33.872 198.892 35.936 198.348 38.736L200.076 38.896C200.604 35.904 200.604 33.92 200.604 32.016V30.432H190.732ZM189.372 41.328H202.236V39.92H189.372V41.328ZM213.373 29.072V39.344H215.101V29.072H213.373ZM203.613 33.568C203.613 35.632 205.261 37.12 207.405 37.12C209.565 37.12 211.197 35.632 211.197 33.568C211.197 31.472 209.565 30 207.405 30C205.261 30 203.613 31.472 203.613 33.568ZM205.293 33.568C205.293 32.288 206.205 31.488 207.405 31.488C208.605 31.488 209.533 32.288 209.533 33.568C209.533 34.816 208.605 35.616 207.405 35.616C206.205 35.616 205.293 34.816 205.293 33.568ZM205.789 43.008H215.501V41.616H207.501V38.32H205.789V43.008Z" fill="#111111"/>
<rect x="15.5" y="11.5" width="279" height="49" rx="15.5" stroke="#E8E8E8" shape-rendering="crispEdges"/>
</g>
<defs>
<filter id="filter0_d_261_11082" x="0" y="0" width="310" height="80" filterUnits="userSpaceOnUse" color-interpolation-filters="sRGB">
<feFlood flood-opacity="0" result="BackgroundImageFix"/>
<feColorMatrix in="SourceAlpha" type="matrix" values="0 0 0 0 0 0 0 0 0 0 0 0 0 0 0 0 0 0 127 0" result="hardAlpha"/>
<feOffset dy="4"/>
<feGaussianBlur stdDeviation="7.5"/>
<feComposite in2="hardAlpha" operator="out"/>
<feColorMatrix type="matrix" values="0 0 0 0 0 0 0 0 0 0 0 0 0 0 0 0 0 0 0.1 0"/>
<feBlend mode="normal" in2="BackgroundImageFix" result="effect1_dropShadow_261_11082"/>
<feBlend mode="normal" in="SourceGraphic" in2="effect1_dropShadow_261_11082" result="shape"/>
</filter>
</defs>
</svg>
