<svg width="310" height="80" viewBox="0 0 310 80" fill="none" xmlns="http://www.w3.org/2000/svg">
<g filter="url(#filter0_d_196_2845)">
<rect x="15" y="11" width="280" height="50" rx="16" fill="white" shape-rendering="crispEdges"/>
<path d="M93 43V29H98.0072L102.319 35.3139V29H107V43H102.319L98.0072 36.3082V43H93Z" fill="#00BF19"/>
<path d="M127.355 30.496V39.792H128.315C130.075 39.792 131.643 39.728 133.419 39.344L133.195 37.904C131.723 38.208 130.443 38.288 129.051 38.32V30.496H127.355ZM131.307 35.072H134.267V42.592H135.883V29.344H134.267V33.664H131.307V35.072ZM137.291 43.28H138.923V29.056H137.291V43.28ZM150.732 29.04V43.312H152.46V29.04H150.732ZM141.18 35.104C141.18 38.192 142.716 40.16 144.86 40.16C147.004 40.16 148.54 38.192 148.54 35.104C148.54 32.032 147.004 30.08 144.86 30.08C142.716 30.08 141.18 32.032 141.18 35.104ZM142.844 35.104C142.844 32.928 143.66 31.648 144.86 31.648C146.06 31.648 146.892 32.928 146.892 35.104C146.892 37.312 146.06 38.592 144.86 38.592C143.66 38.592 142.844 37.312 142.844 35.104ZM164.828 29.04V34.176H161.964V30.176H160.268V33.712H156.972V30.176H155.244V39.856H161.964V35.568H164.828V43.312H166.556V29.04H164.828ZM156.972 38.464V35.072H160.268V38.464H156.972ZM172.388 40.224V41.616H185.268V40.224H179.668V37.856H184.084V36.48H175.636V34.576H183.764V30.016H173.908V31.392H182.068V33.216H173.924V37.856H177.956V40.224H172.388ZM187.732 30.432V31.808H195.892V32.016C195.892 33.872 195.892 35.936 195.348 38.736L197.076 38.896C197.604 35.904 197.604 33.92 197.604 32.016V30.432H187.732ZM186.372 41.328H199.236V39.92H186.372V41.328ZM210.373 29.072V39.344H212.101V29.072H210.373ZM200.613 33.568C200.613 35.632 202.261 37.12 204.405 37.12C206.565 37.12 208.197 35.632 208.197 33.568C208.197 31.472 206.565 30 204.405 30C202.261 30 200.613 31.472 200.613 33.568ZM202.293 33.568C202.293 32.288 203.205 31.488 204.405 31.488C205.605 31.488 206.533 32.288 206.533 33.568C206.533 34.816 205.605 35.616 204.405 35.616C203.205 35.616 202.293 34.816 202.293 33.568ZM202.789 43.008H212.501V41.616H204.501V38.32H202.789V43.008Z" fill="#111111"/>
<rect x="15.5" y="11.5" width="279" height="49" rx="15.5" stroke="#E8E8E8" shape-rendering="crispEdges"/>
</g>
<defs>
<filter id="filter0_d_196_2845" x="0" y="0" width="310" height="80" filterUnits="userSpaceOnUse" color-interpolation-filters="sRGB">
<feFlood flood-opacity="0" result="BackgroundImageFix"/>
<feColorMatrix in="SourceAlpha" type="matrix" values="0 0 0 0 0 0 0 0 0 0 0 0 0 0 0 0 0 0 127 0" result="hardAlpha"/>
<feOffset dy="4"/>
<feGaussianBlur stdDeviation="7.5"/>
<feComposite in2="hardAlpha" operator="out"/>
<feColorMatrix type="matrix" values="0 0 0 0 0 0 0 0 0 0 0 0 0 0 0 0 0 0 0.1 0"/>
<feBlend mode="normal" in2="BackgroundImageFix" result="effect1_dropShadow_196_2845"/>
<feBlend mode="normal" in="SourceGraphic" in2="effect1_dropShadow_196_2845" result="shape"/>
</filter>
</defs>
</svg>
