<svg width="178" height="15" viewBox="0 0 178 15" fill="none" xmlns="http://www.w3.org/2000/svg">
<path d="M2.07663 1.464V2.664H10.5726V2.856C10.5726 4.552 10.5726 6.536 10.0446 9.272L11.5166 9.432C12.0286 6.552 12.0286 4.6 12.0286 2.856V1.464H2.07663ZM0.732625 12.312H13.5006V11.096H7.05263V6.104H5.59663V11.096H0.732625V12.312ZM14.733 6.776V7.976H27.485V6.776H14.733ZM16.237 11.656C16.237 13.288 18.061 14.216 21.085 14.216C24.093 14.216 25.933 13.288 25.933 11.656C25.933 10.024 24.093 9.096 21.085 9.096C18.061 9.096 16.237 10.024 16.237 11.656ZM16.333 5.512H25.997V4.344H17.773V1.832H25.901V0.631999H16.333V5.512ZM17.709 11.656C17.709 10.76 18.957 10.232 21.085 10.232C23.213 10.232 24.445 10.76 24.445 11.656C24.445 12.584 23.213 13.08 21.085 13.08C18.957 13.08 17.709 12.584 17.709 11.656ZM28.7334 1.544V2.712H37.0694V1.544H33.6294V0.0239992H32.1734V1.544H28.7334ZM29.5014 5.944C29.5014 7.496 30.8774 8.488 32.8934 8.488C34.9254 8.488 36.3014 7.496 36.3014 5.944C36.3014 4.392 34.9254 3.368 32.8934 3.368C30.8774 3.368 29.5014 4.392 29.5014 5.944ZM30.4774 10.84H38.2214V14.232H39.6934V9.656H30.4774V10.84ZM30.8934 5.944C30.8934 5.048 31.6934 4.504 32.8934 4.504C34.0934 4.504 34.8934 5.048 34.8934 5.944C34.8934 6.808 34.0934 7.384 32.8934 7.384C31.6934 7.384 30.8934 6.808 30.8934 5.944ZM38.2214 8.936H39.6934V5.16H41.7254V3.944H39.6934V0.119999H38.2214V8.936ZM45.5338 0.967999V2.808C45.5338 4.408 44.5098 6.216 42.6378 7.032L43.4058 8.168C44.7818 7.576 45.7418 6.424 46.2538 5.112C46.7658 6.28 47.6778 7.24 48.9738 7.752L49.7418 6.648C47.9338 5.944 46.9418 4.36 46.9418 2.808V0.967999H45.5338ZM45.1818 11.64C45.1818 13.256 47.0058 14.2 49.9178 14.2C52.8458 14.2 54.6698 13.256 54.6698 11.64C54.6698 10.04 52.8458 9.096 49.9178 9.096C47.0058 9.096 45.1818 10.04 45.1818 11.64ZM46.6218 11.64C46.6218 10.744 47.8698 10.216 49.9178 10.216C51.9818 10.216 53.1978 10.744 53.1978 11.64C53.1978 12.552 51.9818 13.096 49.9178 13.096C47.8698 13.096 46.6218 12.552 46.6218 11.64ZM50.1898 8.36H51.5658V5.016H53.1978V8.808H54.6058V0.119999H53.1978V3.816H51.5658V0.391999H50.1898V8.36ZM63.0381 0.36C59.9181 0.36 58.0461 1.208 58.0461 2.776C58.0461 4.36 59.9181 5.224 63.0381 5.224C66.1741 5.224 68.0461 4.36 68.0461 2.776C68.0461 1.208 66.1741 0.36 63.0381 0.36ZM56.6701 7.272H69.4221V6.104H56.6701V7.272ZM58.1901 9.48H66.3661V10.616H58.2381V14.088H68.2221V12.952H59.6621V11.656H67.8061V8.376H58.1901V9.48ZM59.5501 2.776C59.5501 1.912 60.8141 1.432 63.0381 1.432C65.2781 1.432 66.5421 1.912 66.5421 2.776C66.5421 3.656 65.2781 4.12 63.0381 4.12C60.8141 4.12 59.5501 3.656 59.5501 2.776ZM78.934 0.759999C76.838 0.759999 75.318 1.944 75.318 3.688C75.318 5.4 76.838 6.6 78.934 6.6C81.046 6.6 82.55 5.4 82.55 3.688C82.55 1.944 81.046 0.759999 78.934 0.759999ZM74.326 7.704L74.502 8.936C75.622 8.936 76.902 8.92 78.262 8.856V13.784H79.734V8.776C81.03 8.68 82.358 8.536 83.638 8.296L83.542 7.208C80.454 7.688 76.902 7.704 74.326 7.704ZM76.71 3.688C76.71 2.632 77.638 1.944 78.934 1.944C80.23 1.944 81.158 2.632 81.158 3.688C81.158 4.712 80.23 5.4 78.934 5.4C77.638 5.4 76.71 4.712 76.71 3.688ZM84.502 14.232H85.942V0.103999H84.502V14.232ZM97.8464 0.119999V10.696H99.3184V5.896H101.35V4.68H99.3184V0.119999H97.8464ZM88.3584 2.936H96.6944V1.768H93.2544V0.119999H91.7984V1.768H88.3584V2.936ZM89.1264 6.312C89.1264 7.912 90.5184 8.952 92.5184 8.952C94.5344 8.952 95.9264 7.912 95.9264 6.312C95.9264 4.712 94.5344 3.656 92.5184 3.656C90.5184 3.656 89.1264 4.712 89.1264 6.312ZM90.4704 13.928H99.9264V12.728H91.9104V9.864H90.4704V13.928ZM90.5184 6.312C90.5184 5.368 91.3344 4.792 92.5184 4.792C93.7184 4.792 94.5184 5.368 94.5184 6.312C94.5184 7.24 93.7184 7.832 92.5184 7.832C91.3344 7.832 90.5184 7.24 90.5184 6.312ZM105.982 8.616V9.832H111.646V14.248H113.102V9.832H118.766V8.616H105.982ZM107.678 7.272H117.374V6.104H109.118V4.552H116.894V3.4H109.118V1.928H117.214V0.759999H107.678V7.272ZM121.711 0.919999V6.504H131.183V5.32H123.183V2.12H131.007V0.919999H121.711ZM119.983 9.432H125.615V14.2H127.055V9.432H132.767V8.216H119.983V9.432ZM144.111 0.0879993V14.248H145.583V0.0879993H144.111ZM134.735 2.584H139.823V5.352H134.767V10.856H135.951C138.415 10.856 140.527 10.776 143.023 10.344L142.863 9.16C140.511 9.544 138.511 9.64 136.239 9.656V6.536H141.295V1.4H134.735V2.584ZM153.519 1.032V2.104C153.519 4.424 151.055 6.584 148.431 7.08L149.071 8.28C151.295 7.8 153.359 6.312 154.287 4.328C155.199 6.312 157.279 7.784 159.503 8.28L160.159 7.08C157.503 6.6 155.055 4.44 155.055 2.104V1.032H153.519ZM147.951 12.344H160.735V11.144H147.951V12.344ZM163.552 1.272V8.808H173.296V7.624H165.024V5.576H172.848V4.408H165.024V2.456H173.152V1.272H163.552ZM161.936 12.44H174.72V11.24H161.936V12.44ZM177.984 11.672H176.496L175.968 14.968H177.008L177.984 11.672Z" fill="#767676"/>
</svg>
